<svg version="1.2" xmlns="http://www.w3.org/2000/svg" viewBox="0 0 1500 800" width="1500" height="800"><style>.a{fill:#fff}.b{fill:#ffd42e}</style><path class="a" d="m748.2 270.5c4 17.1 3.2 38.3 3.2 38.3l-15.5 6.1c0 0-9.6 39.2 50.6 27.2 11.6-2.4 45.4-28 45.4-28l-26.7-7.7c0 0-2.6-38.8-3.6-58.2-14 6.6-36.6 17-53.4 22.3z"/><path fill-rule="evenodd" d="m765.9 345.4c-11.6 0-20.1-2.8-25.5-8.4-8.7-9-5.7-21.8-5.6-22.4 0.1-0.3 0.4-0.6 0.7-0.7l14.9-5.8c0.1-3.8 0.2-22.3-3.3-37.4-0.1-0.5 0.2-1.1 0.7-1.3 17.5-5.4 41.7-16.7 53.4-22.1 0.3-0.2 0.7-0.1 1 0 0.3 0.2 0.5 0.5 0.5 0.9 0.9 17.6 3.2 51.9 3.5 57.4l26 7.4c0.4 0.2 0.7 0.5 0.8 0.9 0.1 0.4-0.1 0.8-0.4 1-1.4 1.1-34.2 25.9-45.9 28.2q-11.6 2.3-20.8 2.3zm-29.1-29.7c-0.4 2.4-1.8 12.6 5.1 19.9 7.7 7.9 22.6 9.8 44.3 5.4 9.9-1.9 36.4-21.3 43.4-26.5l-24.7-7.1c-0.4-0.1-0.7-0.5-0.8-0.9 0-0.4-2.4-37.1-3.5-56.6-11.9 5.5-34.4 15.9-51.2 21.3 3.8 16.9 3.1 37.5 3.1 37.7 0 0.4-0.3 0.8-0.7 0.9zm14.6-6.8h0.1z"/><path class="b" d="m711.3 162.3c-5.5 1.3-10.9-4.2-11-10.1-0.2-5.9 4-11.2 9-13.8 5.1-2.6 10.9-2.9 16.6-3.7-2.1-5.7 0.6-12.6 5.3-16.2 4.8-3.7 11-4.5 16.8-3.8 3.9 0.5 7.7 1.6 10.7 4.1 3.1 2.5 5.1 6.5 5 10.8 5-6.4 13.3-10.7 21-8.9 7.8 1.9 13.6 11.3 14.2 17.9 3.8-4.7 8.7-8.5 14.5-8.2 11.5 0.7 14.1 10.5 9 23.1 6.1-3.1 15.2-0.4 18.2 8.5 2.1 6.6-0.3 17.2-4.9 22.4-0.8 0.9-2 1.8-3.4 2.6-1.8 9.8-4.1 20.2-7.4 33.2-2.5 9.4-6.8 19.8-11.7 28.4-2.4 4-4.2 6-8.9 8.2-0.3-4.1-4.5-6.2-5.2-10.2-0.8-5 2.4-9.4-0.6-13.8-5.7-8.4-9.6-17.7-11.5-27.2-1.5-7.8-1.5-15.9 2.1-23.1 1.3-2.6 3.2-5 5.5-7.1-1-2-1.8-4-2.5-6.1-3.3 5.8-5.8 9.8-14.3 12.6-6.1 2-13.5-0.4-15.5-6.3-1.4 5.9-10.6 14.3-16.4 14.9-5.8 0.6-8-2.1-10.3-7.7-5.2 4.6-9 9.3-14.3 11.3-8 3-18-2-20.6-10.5-2.7-8.4 2.5-18.7 10.6-21.3z"/><path fill-rule="evenodd" d="m804.3 257.8q-0.3 0-0.6-0.1c-0.3-0.2-0.5-0.5-0.5-0.9-0.1-1.8-1.2-3.2-2.3-4.7-1.2-1.5-2.5-3.1-2.8-5.3-0.4-2.2-0.1-4.2 0.3-6.1 0.4-2.7 0.8-5-0.8-7.3-5.8-8.6-9.7-17.9-11.6-27.6-1.9-9.5-1.1-17.3 2.2-23.8 1.2-2.4 3-4.8 5.1-6.8q-0.8-1.6-1.4-3.3c-2.8 4.7-5.8 8.4-13.7 11-6.2 2-12.7 0-15.8-4.6-2.8 5.9-10.8 12.7-16.4 13.3-5.9 0.6-8.5-2-10.8-7q-1.3 1.2-2.5 2.4c-3.5 3.3-6.9 6.5-11 8-4 1.6-8.7 1.3-12.9-0.8-4.4-2.1-7.7-5.9-9.1-10.3-2.4-7.6 1-16.5 7.4-20.7q-1.6-0.6-3.2-1.7c-2.8-2.2-4.6-5.8-4.7-9.3-0.1-6.7 4.8-12.3 9.7-14.7 4.2-2.2 9.1-2.8 13.7-3.4q1-0.1 1.9-0.3c-1.4-5.5 1.1-12.3 6.1-16.1 4.4-3.5 10.7-4.9 17.6-4.1 4.6 0.6 8.4 2.1 11.2 4.4 2.8 2.3 4.6 5.5 5.2 8.9 5.7-6 13.5-8.9 20.4-7.2 7.2 1.7 13 9.6 14.6 16.5 4.4-4.8 9.1-7.1 13.9-6.8 4.8 0.2 8.5 2.1 10.5 5.4 2.6 4 2.6 9.9 0.2 16.9 2.9-0.8 6.1-0.6 9 0.6 4 1.7 6.9 5 8.4 9.4 2.2 6.9-0.2 17.8-5.1 23.4q-1.2 1.4-3.3 2.6c-1.9 10.4-4.2 20.9-7.3 32.7-2.5 9.7-6.8 20.1-11.8 28.7-2.4 4-4.3 6.2-9.4 8.6q-0.2 0.1-0.4 0.1zm-12.2-89.5q0.1 0 0.2 0c0.4 0 0.7 0.3 0.9 0.7 0.7 2.2 1.4 4.2 2.3 6 0.2 0.4 0.1 0.9-0.2 1.2-2.2 2-4 4.3-5.2 6.8-3.1 6-3.8 13.4-2 22.4 1.8 9.4 5.6 18.4 11.3 26.8 2 3 1.5 6 1 8.8-0.2 1.8-0.5 3.6-0.3 5.4 0.3 1.7 1.3 3 2.4 4.4 1.1 1.3 2.1 2.7 2.6 4.4 3.7-1.9 5.2-3.8 7.1-7.2 4.9-8.4 9.2-18.6 11.6-28.1 3.2-12 5.5-22.5 7.4-33.1 0.1-0.3 0.3-0.6 0.6-0.7 1.3-0.8 2.4-1.6 3.1-2.4 4.4-5 6.7-15.2 4.7-21.4-1.3-3.7-3.8-6.6-7.2-8-3.2-1.3-6.7-1.3-9.6 0.1-0.4 0.2-0.8 0.1-1.2-0.2-0.3-0.3-0.4-0.7-0.2-1.1 3-7.3 3.3-13.4 0.8-17.2-1.7-2.7-4.6-4.2-8.8-4.4-4.7-0.3-9.3 2.4-13.7 7.7-0.2 0.4-0.7 0.5-1.1 0.4-0.4-0.1-0.7-0.5-0.8-0.9-0.5-5.9-5.8-15.2-13.3-17-6.8-1.6-14.6 1.8-20 8.6-0.3 0.3-0.8 0.4-1.2 0.3-0.4-0.2-0.7-0.6-0.7-1 0.1-3.8-1.6-7.6-4.5-10-2.5-2-5.9-3.3-10.2-3.9-6.3-0.7-12 0.5-16 3.6-4.7 3.6-6.8 10.1-5 15 0.1 0.3 0.1 0.7-0.1 0.9-0.1 0.3-0.4 0.5-0.7 0.6q-1.6 0.2-3.2 0.4c-4.7 0.6-9.1 1.1-13.1 3.1-4.3 2.2-8.6 7.1-8.5 12.9 0.1 2.8 1.6 5.8 3.9 7.6 1.9 1.4 3.9 1.9 5.9 1.5 0.5-0.2 1.1 0.2 1.3 0.7 0.1 0.6-0.2 1.1-0.7 1.3-7.6 2.4-12.5 12.1-10 20 1.2 3.9 4.1 7.1 8 9 3.7 1.8 7.8 2.1 11.2 0.8 3.8-1.5 6.8-4.3 10.3-7.6q1.8-1.7 3.7-3.5c0.2-0.2 0.6-0.3 0.9-0.2 0.4 0.1 0.6 0.3 0.8 0.6 2.2 5.3 4 7.6 9.2 7 5.4-0.5 14.2-8.5 15.4-14 0.1-0.5 0.5-0.8 1-0.9 0.5 0 0.9 0.3 1.1 0.7 1.9 5.6 8.9 7.4 14.2 5.7 8.3-2.7 10.6-6.6 13.7-12.1 0.2-0.3 0.6-0.5 0.9-0.5z"/><path class="a" d="m720.2 195.3q0.1-0.4 0.1-0.9 0.5-0.1 1-0.3c5.3-2 9.1-6.7 14.3-11.3 2.3 5.6 4.5 8.3 10.3 7.7 5.8-0.6 15-9 16.4-14.9 2 5.9 9.4 8.3 15.5 6.3 8.5-2.8 11-6.8 14.3-12.6 1.9 5.9 4.9 12 11.2 16.6 2.4 1.6 4.9 2.8 7.5 3.5q0.1 1.7 0.3 3.3c0.4 3.9 1.4 12.4 0.5 21 6.6-5.5 12.1-4.6 16.1-0.5 4.1 4.2 3.8 10.7-0.2 14.8-4 4.1-11 5.6-17.2 4.3-1.6 10.4-4 31.2-11.2 40.4-7.7 9.8-21.3 16.1-35.3 16.3-14.1 0.2-28.2-5.6-36.8-15.1-9.7-10.8-11.9-25.1-11-38.5 0.8-13.4 4.2-26.6 4.2-40.1z"/><path fill-rule="evenodd" d="m763 290.1c-14.1 0-28.1-5.9-36.8-15.5-8.5-9.5-12.3-22.7-11.3-39.3 0.4-5.9 1.2-11.8 2.1-17.5 1-7.4 2.2-15 2.2-22.5q0-0.4 0-0.9c0-0.5 0.3-0.9 0.8-1q0.5-0.2 0.9-0.3c3.8-1.5 6.8-4.3 10.3-7.6q1.8-1.7 3.7-3.5c0.2-0.2 0.6-0.3 0.9-0.2 0.4 0.1 0.6 0.3 0.8 0.6 2.2 5.3 4 7.6 9.2 7 5.4-0.5 14.2-8.5 15.4-14 0.1-0.5 0.5-0.8 1-0.9 0.5 0 0.9 0.3 1.1 0.7 1.9 5.6 8.9 7.4 14.2 5.7 8.3-2.7 10.6-6.6 13.7-12.1 0.2-0.4 0.6-0.6 1.1-0.5 0.4 0 0.7 0.3 0.9 0.7 1.4 4.6 4.1 11.3 10.7 16 2.1 1.5 4.5 2.6 7.1 3.4 0.5 0.1 0.8 0.4 0.8 0.9 0.1 1.3 0.2 2.3 0.3 3.3l0.1 0.2c0.4 3.7 1.2 10.9 0.7 18.6 5.7-3.8 11.1-3.4 15.6 1.1 4.4 4.5 4.3 11.6-0.2 16.2-3.9 4-10.7 5.8-17.1 4.8q-0.2 1.2-0.4 2.5c-1.7 11.5-4.2 28.9-10.9 37.4-7.9 10-21.7 16.4-36.1 16.6q-0.4 0.1-0.8 0.1zm-41.7-94.9q0 0.1 0 0.1 0 0 0 0c0 7.7-1.1 15.4-2.2 22.8-0.9 5.7-1.7 11.5-2.1 17.3-1 16 2.7 28.7 10.8 37.8 8.4 9.3 22.2 14.9 36 14.7 13.7-0.2 27-6.3 34.5-15.8 6.3-8.1 8.9-25.8 10.4-36.4q0.3-2 0.6-3.6c0-0.3 0.2-0.5 0.4-0.7 0.2-0.1 0.5-0.2 0.8-0.1 6.1 1.2 12.6-0.4 16.2-4.1 3.8-3.8 3.9-9.6 0.3-13.2-4.2-4.3-9.2-4.1-14.7 0.5-0.3 0.2-0.8 0.3-1.2 0.1-0.4-0.2-0.6-0.6-0.5-1.1 0.9-8.2-0.1-16.5-0.5-20.4l-0.1-0.3c-0.1-0.8-0.1-1.6-0.2-2.6q-3.9-1.2-7.1-3.5c-6.1-4.4-9.1-10.2-10.8-14.8-2.8 4.7-5.8 8.4-13.7 11-6.2 2-12.7 0-15.8-4.6-2.8 5.9-10.8 12.7-16.4 13.3-5.9 0.6-8.5-2-10.8-7q-1.3 1.2-2.5 2.4c-3.5 3.3-6.9 6.5-11 8q-0.2 0.1-0.4 0.2zm-1.1 0.1h0.1z"/><path  d="m732.7 214.8c-0.2-1.7 1.1-3.2 2.8-3.4 1.8-0.2 3.3 1 3.5 2.7 0.2 1.6-1 3.1-2.8 3.3-1.7 0.2-3.3-1-3.5-2.6z"/><path  d="m777 217.2c-0.2-1.7 1.1-3.2 2.8-3.4 1.8-0.2 3.4 1 3.5 2.6 0.2 1.7-1 3.2-2.8 3.4-1.7 0.2-3.3-1-3.5-2.6z"/><path  d="m763.8 269.1q-2 0-4-0.5c-0.6-0.2-0.9-0.8-0.8-1.3 0.2-0.6 0.8-0.9 1.3-0.8 5.2 1.4 11.1-0.4 14.6-4.5 0.4-0.5 1.1-0.5 1.5-0.1 0.4 0.3 0.5 1 0.1 1.5-3.1 3.6-7.9 5.7-12.7 5.7z"/><path  d="m756.3 252.4q-3.2 0-6.7-1.2c-1.2-0.5-2.6-1.1-3.6-2.2-1.3-1.5-1.8-3.7-1.3-6.1 0.4-1.6 1.1-3.1 1.8-4.6l0.3-0.6c3.9-7.9 5.9-16.6 5.8-25.3 0-0.6 0.5-1.1 1.1-1.1q0 0 0 0c0.6 0 1 0.5 1 1.1 0.1 9-2 18.1-5.9 26.2l-0.4 0.7c-0.7 1.4-1.3 2.7-1.6 4.1-0.4 1.6-0.1 3.2 0.8 4.2 0.7 0.8 1.8 1.2 2.7 1.6 2.9 1 5.5 1.3 7.9 1 2.7-0.4 5.1-1.8 6.4-3.8 0.3-0.5 1-0.6 1.5-0.3 0.5 0.3 0.6 1 0.3 1.5-1.7 2.5-4.5 4.2-7.9 4.7q-1.1 0.1-2.2 0.1z"/><path  d="m810.9 221.6q0 0-0.1-0.1c-0.6 0-1-0.6-0.9-1.1 0.5-3.7 0.6-5.7 1-9.2 0-0.6 0.5-1 1.1-0.9 0.6 0 1 0.5 1 1.1-0.4 3.6-0.5 5.5-1 9.2-0.1 0.6-0.6 1-1.1 1z"/><path  d="m708.9 186.4q-0.2 0-0.3-0.1c-3-3.1-4.1-7.9-2.7-12 0.1-0.2 0.3-0.3 0.4-0.2 0.2 0 0.3 0.2 0.3 0.4-1.3 3.9-0.3 8.4 2.5 11.3 0.2 0.1 0.2 0.3 0 0.5q-0.1 0.1-0.2 0.1z"/><path  d="m826.1 182.2q-0.1 0-0.3-0.1c-0.1-0.1-0.1-0.4 0.1-0.5 5-4.5 7-12 4.8-18.4-0.1-0.2 0-0.4 0.2-0.5 0.2 0 0.4 0.1 0.5 0.3 2.3 6.6 0.2 14.5-5.1 19.1q-0.1 0.1-0.2 0.1z"/><path class="a" d="m548.7 403.4c-6.6-32.6-10-90.9-19.2-123.4-8.6-8.5-17.5-22-20.9-34.4-1.4-5-1.4-7 2-10.4 2.4-2.4 6.7-1.6 9.4 0.1-1.2-3.2-4.2-6.1-0.3-9.3 1.8-1.4 4.3-2.1 6.2-0.9-1-6.4 6.1-10.1 10.1-4-3-7.9-5.8-14.9-8.9-22.2-2-4.5-3.8-9.9-1-11.7 3.6-2.4 7.3 2.7 11.3 10.2 6.8 13 9.1 17.3 16.6 29 7.2 11 12.9 31.2 7.4 38.7 0.3 13.2 30.5 95.8 42.4 114 4.3 6.7-1.3 11-4.3 18.4-3.5 8.9-17.3 40-38.5 24.4-6-4.4-11.9-16.5-12.3-18.5z"/><path fill-rule="evenodd" d="m572.6 427.3q-6 0-12.2-4.6c-6.3-4.6-12.3-16.9-12.8-19.1-2.7-13.6-4.9-31.4-7.2-50.2-3.2-26.5-6.5-53.9-11.8-72.8-7.9-7.8-17.3-21.5-21-34.7-1.6-5.3-1.4-7.7 2.2-11.4 2-2.1 5.2-2.3 8-1.4-1.2-2.3-2.2-5.1 1.2-7.9 1.5-1.1 3.7-2.1 5.8-1.7 0.1-2.8 1.7-5.3 4.2-6.2 1.2-0.5 2.9-0.6 4.4 0.1-2.2-5.8-4.6-11.9-7.3-18.1-2.2-5.2-4-10.8-0.6-13q1.7-1.1 3.5-0.6c2.8 0.7 5.5 4 9.3 11.2l0.2 0.3c6.7 12.8 9 17.1 16.4 28.6 7 10.7 13.2 31.3 7.6 39.6 0.8 13.4 30.1 94.6 42.1 113.2 3.5 5.3 1.2 9.4-1.3 13.8-1 1.7-2 3.5-2.8 5.5-3.7 9.3-11.6 25.4-23.4 28.7q-2.3 0.7-4.5 0.7zm-57.9-192.6c-1.3 0-2.5 0.4-3.4 1.3-3 3-3 4.6-1.7 9.4 3.6 12.9 13 26.3 20.7 33.9q0.2 0.1 0.2 0.4c5.4 19.1 8.8 46.7 12 73.4 2.3 18.8 4.5 36.6 7.2 50.1q0 0 0 0c0.4 1.8 6.2 13.6 12 17.8 5 3.8 10 5 14.8 3.6 10.9-3.1 18.5-18.6 22-27.5 0.9-2.1 2-4 2.9-5.7 2.5-4.3 4.2-7.4 1.5-11.7-11.6-17.9-42.2-100.3-42.6-114.6q0-0.4 0.2-0.7c5-6.7 0.1-25.9-7.3-37.4-7.6-11.7-9.9-16-16.6-28.8l-0.2-0.3c-2.1-4-5.3-9.5-7.9-10.2-0.6-0.1-1.2 0-1.8 0.4-2.4 1.5 0.4 8.2 1.4 10.4 3.3 7.7 6.2 15.2 8.9 22.2 0.2 0.5 0 1.1-0.5 1.3-0.5 0.3-1.1 0.1-1.4-0.3-1.4-2.3-3.5-3.2-5.4-2.4-1.6 0.6-3.2 2.6-2.8 5.6 0.1 0.4-0.1 0.8-0.4 1.1-0.4 0.2-0.8 0.2-1.2 0-1.5-1-3.5-0.3-4.9 0.9-2.3 1.8-1.7 3.3-0.4 5.9 0.4 0.7 0.7 1.4 1 2.1 0.2 0.4 0.1 0.9-0.3 1.2-0.3 0.3-0.8 0.3-1.2 0.1-1.4-0.9-3.2-1.5-4.8-1.5z"/><path  d="m525.3 254.3c-1 0-2-0.3-2.9-0.9-1.3-0.8-2.2-2-3-3.1l-3.7-4.9c-0.3-0.5-0.2-1.1 0.3-1.5 0.4-0.3 1.1-0.2 1.4 0.2l3.7 5c0.7 0.9 1.5 1.9 2.4 2.6 0.9 0.5 2 0.7 2.7 0.3 0.9-0.4 1.2-1.6 1.2-2.5-0.1-1.2-0.6-2.4-1.2-3.5-2.1-4.1-2.7-4.8-4.4-6.9-0.7-0.8-1.5-1.8-2.6-3.2-0.4-0.5-0.3-1.1 0.2-1.5 0.4-0.3 1.1-0.3 1.5 0.2 1 1.4 1.8 2.4 2.5 3.1 1.8 2.2 2.5 3 4.7 7.3 0.6 1.3 1.3 2.8 1.4 4.4 0.1 1.9-0.8 3.7-2.3 4.5q-0.9 0.4-1.9 0.4z"/><path  d="m534.2 252.1c-1.3 0-2.6-0.7-3.7-1.4q-1.5-1-3-2.2c-0.5-0.3-0.6-1-0.2-1.5 0.3-0.4 1-0.5 1.5-0.2q1.4 1.1 2.9 2.1c1 0.7 2 1.3 2.9 1.1 1.1-0.3 1.6-1.9 1.6-3.2 0-2.1-1.9-7.4-10.9-20.8l-0.3-0.3c-0.3-0.5-0.2-1.2 0.3-1.5 0.5-0.3 1.1-0.2 1.5 0.3l0.2 0.3c7.6 11.2 11.4 18.4 11.4 22 0 2.2-1 4.6-3.3 5.2q-0.4 0.1-0.9 0.1z"/><path  d="m540.1 261.6c-0.5 0-0.9-0.3-1-0.8-1.6-5.7 1.8-10.5 4.3-14 1-1.4 2.4-3.3 2.1-3.8-1-1.6-6.3-3.2-8.9-4-1.4-0.4-2.1-0.7-2.4-0.9-2.7-1.5-3.6-3.3-3.8-4.6-0.3-1-0.1-2.1 0.4-2.8 0.7-1 3.1-3 4.6-3.1 3.2-0.4 10.7 1.6 15.1 2.7q1.2 0.3 2 0.5c1.9 0.5 8.1 4.3 8.3 7 0 0.6-0.4 1.1-1 1.2-0.6 0-1.1-0.4-1.2-1 0-1.2-4.6-4.6-6.7-5.1q-0.7-0.2-1.9-0.5c-4-1.1-11.6-3-14.3-2.7-0.7 0.1-2.6 1.4-3.2 2.2-0.1 0.2-0.2 0.6-0.1 1.2 0.2 0.7 0.7 2 2.8 3.2 0.3 0.1 1.2 0.4 2 0.7 4.4 1.3 8.8 2.8 10.1 4.9 1 1.7-0.4 3.7-2.2 6.1-2.4 3.4-5.3 7.5-4 12.2 0.2 0.6-0.2 1.2-0.7 1.3q-0.2 0.1-0.3 0.1z"/><path  d="m540.5 230.1c-0.5 0-0.9-0.3-1.1-0.7-0.3-1.2-1.8-3.7-3-5.7-0.6-1-1.2-2-1.6-2.7-0.2-0.5-0.1-1.2 0.5-1.5 0.5-0.2 1.1 0 1.4 0.5 0.4 0.7 0.9 1.6 1.5 2.7 1.3 2.1 2.8 4.6 3.3 6 0.1 0.6-0.2 1.2-0.7 1.3q-0.2 0.1-0.3 0.1z"/><path  d="m539.1 249.3q-0.9 0-1.6-0.3c-0.5-0.3-0.7-0.9-0.5-1.4 0.3-0.6 0.9-0.8 1.4-0.5 0.6 0.2 1.6 0.1 2.4-0.6 1.2-1 1.4-3 0.5-5.4-0.2-0.5 0.1-1.2 0.7-1.4 0.5-0.2 1.1 0.1 1.3 0.7 1.7 4.6-0.2 6.9-1.1 7.7-0.9 0.8-2 1.2-3.1 1.2z"/><path  d="m938.5 450.2c-8.4-44-8.4-91.1-43.8-120.6-17-14.2-57.3-20.3-80.9-21.8-1.4 22.8-23.7 28.2-38 27.3-23.9-1.5-28.2-6.2-34.2-24.3-5.4 2.1-37.6 3.7-58.6 22.4-38.8 34.8-86.4 31.5-83.1 33.7 3 1.9-7.6 50.4-37.3 56.3-15.6 3.1 71.2 16 130.7 0.2-2.2 31.2 9 122 15.4 157 62.1 43.3 189.8-5.6 189.8-5.6 0 0-9.8-28.8-9.8-50.5 0-10.7 25.3 13.1 30.3 14 1.6 0.3 6.8-3.4 7.5-5 4.2-9.8 19.7-42.7 12-83.1z"/><path fill-rule="evenodd" d="m778.8 599.4q-7.4 0-14.3-0.5c-23.1-1.7-42-7.6-56.4-17.6-0.2-0.2-0.3-0.4-0.4-0.7-6.5-35.1-17.3-123.8-15.5-155.8-53.5 13.7-127.5 5.2-132 0.4-0.5-0.4-0.6-1-0.4-1.5 0.3-0.9 1.5-1.3 2.6-1.5 14.9-3 24.3-16.9 29.6-28 6-12.6 8-24.7 7.2-26.5-0.6-0.5-0.5-1.1-0.5-1.3 0.3-1 1.1-1.1 5.8-1.7 13.1-1.5 47.9-5.5 77.8-32.3 16.6-14.8 39.7-18.9 52.1-21.2 3.2-0.5 5.7-1 6.8-1.4 0.3-0.1 0.6-0.1 0.8 0 0.3 0.1 0.5 0.4 0.6 0.6 5.9 17.8 9.7 22.2 33.2 23.7 4 0.2 14.2 0.3 23.3-4.7 8.5-4.6 13.1-11.9 13.7-21.7 0-0.3 0.1-0.5 0.3-0.7 0.3-0.2 0.5-0.3 0.8-0.3 27.5 1.8 65.3 8.6 81.5 22.1 29 24.2 34.6 60.8 40 96.3 1.3 8.2 2.6 16.6 4.1 24.9 7.4 38.8-6.3 70.4-11.4 82.3q-0.4 0.8-0.6 1.4c-0.8 1.9-6.5 6-8.7 5.6-1.8-0.3-5.2-2.7-10.6-6.6-5.8-4.2-15.4-11.2-17.8-10q-0.6 0.3-0.6 1.6c0 21.3 9.6 49.8 9.7 50.1 0.2 0.6-0.1 1.1-0.6 1.4-0.3 0.1-32.5 12.3-71.8 19.1-17.4 3-33.6 4.5-48.3 4.5zm-69.1-19.6c31.8 21.9 81.1 19.2 117 13 35.4-6.1 64.9-16.6 70.5-18.7-1.7-5.2-9.5-30.4-9.5-49.8 0-2.1 0.9-3 1.7-3.4 3.4-1.8 10.4 3.1 20 10.1 4.1 2.9 8.3 6 9.7 6.2 1.2 0.2 5.9-3 6.4-4.3q0.3-0.7 0.6-1.5c5.1-11.7 18.6-42.8 11.3-81-1.5-8.3-2.8-16.8-4.1-25-5.6-36.7-10.9-71.3-39.3-95-15.5-13-52.1-19.7-79.2-21.5-0.9 9.9-6 17.7-14.7 22.4-9.6 5.2-20.3 5.2-24.4 4.9-23.7-1.5-28.7-6.3-34.8-24.1-1.4 0.4-3.5 0.8-6.1 1.2-12.2 2.2-34.9 6.3-51.1 20.7-30.4 27.2-65.6 31.3-78.9 32.8-1.4 0.2-2.7 0.3-3.5 0.5 0.2 1.1 0.3 3.2-0.5 7.3-2.9 15.1-14.5 44.9-38 49.6q-0.1 0.1-0.2 0.1c9.4 3.9 79.2 11.7 130.5-1.9 0.3-0.1 0.6 0 0.9 0.2 0.3 0.2 0.4 0.6 0.4 0.9-2.2 30.4 8.7 120.4 15.3 156.3zm-110.5-212.2q0 0 0 0z"/><path  d="m874.4 489.6c-0.4 0-0.8-0.3-1-0.7-12.7-38.4-19.8-62.7-19.8-115.3 0-0.6 0.4-1 1-1 0.6 0 1.1 0.4 1.1 1 0 52.3 7.1 76.4 19.7 114.6 0.2 0.6-0.1 1.2-0.7 1.3q-0.1 0.1-0.3 0.1z"/><path fill-rule="evenodd" d="m693.3 424.5q-0.4 0-0.7-0.3c-0.6-0.5-0.6-1.1-0.7-8.9-0.1-5.8-0.3-15.4-0.8-30 0-0.6 0.4-1.1 1-1.1 0.6-0.1 1.1 0.4 1.1 1 0.6 14.7 0.7 24.3 0.8 30.1 0.1 4.1 0.1 6.9 0.2 7.6 0.3 0.4 0.2 0.9-0.1 1.2-0.2 0.3-0.5 0.4-0.8 0.4zm0.7-1.9q0 0 0 0 0 0 0 0z"/><path class="a" d="m760.2 403.1c-23.8 0-45.5-2.1-56.9-7.9-0.1-0.1-0.2-0.3-0.1-0.5 0.1-0.2 0.3-0.3 0.5-0.2 23.5 12 91.2 8.1 131 2.5 0.2 0 0.3 0.1 0.4 0.3 0 0.2-0.1 0.4-0.3 0.4-20.7 2.9-48.9 5.4-74.6 5.4z"/><path class="a" d="m785.7 436.5c-31.7 0-60.6-5-82.3-10.3-0.2 0-0.3-0.2-0.3-0.4 0.1-0.2 0.3-0.3 0.5-0.3 33.3 8.2 83.6 15.7 134.6 5.2 0.2 0 0.4 0.1 0.4 0.3 0.1 0.2-0.1 0.4-0.3 0.4-17.8 3.7-35.6 5.1-52.6 5.1z"/><path class="a" d="m935.2 508.3q-0.2 0-0.3-0.1c-11.4-19.3-30-28.9-47.3-24.7-0.2 0.1-0.4-0.1-0.5-0.3 0-0.1 0.1-0.3 0.3-0.4 17.6-4.3 36.5 5.5 48.1 25 0.1 0.2 0 0.4-0.1 0.5q-0.1 0-0.2 0z"/><path class="a" d="m930.7 516.2q-0.1 0-0.2-0.1c-2.1-1.6-3.6-3.9-5-6-0.5-0.8-1-1.6-1.6-2.3-3.2-4.6-7.6-8.2-12.8-10.5-0.1 0-0.2-0.3-0.1-0.4 0-0.2 0.2-0.3 0.4-0.2 5.3 2.3 9.8 6 13.1 10.6 0.6 0.8 1.1 1.6 1.6 2.4 1.4 2.1 2.8 4.3 4.8 5.8 0.2 0.2 0.2 0.4 0.1 0.5q-0.1 0.2-0.3 0.2z"/><path class="a" d="m599.9 400.5q-0.1 0-0.1-0.1c-0.2 0-0.3-0.2-0.2-0.4 3.9-9.6 5.8-20.1 5.5-30.5 0-0.1 0.2-0.3 0.4-0.3 0.2 0 0.3 0.1 0.3 0.3 0.3 10.5-1.6 21.1-5.6 30.8 0 0.1-0.2 0.2-0.3 0.2z"/><path class="a" d="m613.3 381.2q-0.1 0-0.1-0.1c-0.2 0-0.3-0.2-0.3-0.4 0.9-3.7 1.1-7.4 0.7-11.2 0-0.2 0.1-0.3 0.3-0.4 0.2 0 0.4 0.2 0.4 0.3 0.4 3.9 0.2 7.7-0.7 11.5 0 0.1-0.2 0.3-0.3 0.3z"/><path class="a" d="m877.6 491.9c-0.5 0-0.9-0.3-1.1-0.8-8.5-31.5-14.4-64-17.4-96.4 0-0.5 0.4-1.1 1-1.1 0.6-0.1 1.1 0.4 1.1 0.9 3 32.3 8.8 64.6 17.4 96 0.1 0.6-0.2 1.2-0.8 1.3q-0.1 0.1-0.2 0.1z"/><path class="a" d="m690.8 430.4q0 0 0 0c-0.6 0-1.1-0.5-1.1-1.1l0.6-35.8c0-0.6 0.5-1.1 1-1.1 0.6 0.1 1.1 0.5 1.1 1.1l-0.6 35.8c0 0.6-0.4 1.1-1 1.1z"/><path class="a" d="m882.6 500.2c4.6-4.5 13.4-2.8 19.2 0 2.8 1.3 25.7 22.5 17.4 40.3-7.3 15.2-12 21-50.2 77.4-1.4 2.1-2.9 4.2-5 5.6-6.9 4.2-15.8-2.3-18.8-9.8-6.2-15.9 2.1-33.4 9.8-48.6 7.8-15.5 22.9-60.5 27.6-64.9z"/><path fill-rule="evenodd" d="m859.3 625.9q-1.8 0-3.7-0.7c-4.8-1.5-9.3-6-11.3-11.1-6.7-16.9 2.8-35.7 9.8-49.5 3.4-6.8 8.3-19.5 13-31.7 7.5-19.2 12.2-31 14.7-33.5 4.8-4.6 13.7-3.4 20.4-0.2 3.6 1.7 26.6 23.3 17.9 41.7-5.7 12.1-9.9 18.4-30.2 48.2-5.4 7.8-12 17.5-20 29.4-1.4 2-3 4.4-5.4 5.9-1.6 1-3.3 1.5-5.2 1.5zm31.3-127.4c-2.9 0-5.5 0.7-7.3 2.4-2.4 2.3-8.4 17.8-14.2 32.8-4.7 12.3-9.7 25-13.1 31.8-6.8 13.5-16.1 31.8-9.8 47.8 1.8 4.6 5.9 8.6 10.1 9.9 1.8 0.6 4.5 1 7.1-0.6 2-1.3 3.5-3.4 4.8-5.3 8-11.9 14.6-21.6 19.9-29.4 20.2-29.7 24.4-35.9 30.1-47.9 8.2-17.4-15.1-38-16.9-38.9-3.2-1.5-7.2-2.6-10.7-2.6zm-8 1.7z"/><path  d="m1143.3 388.6c-0.4 19.3 11.4 39.1 29.7 45.5 10 3.5 20.9 3 31.1 5.6 10.2 2.7 20.6 10.4 20.7 20.9 0 7-3.9 22.9 17 32.2 17.3 7.7 13.2 49.3-40.4 66.7-16.4 5.4-5.8-8.1-22.9-10.7-16.9-2.6-32.1-12.1-43.8-24.6-11.6-12.5-19.8-27.8-26.2-43.6-7.4-18.2-12.6-38.3-8-57.4 4.5-19.1 21.4-36.3 42.8-34.6z"/><path fill-rule="evenodd" d="m1195.3 561.9c-3.6 0-4.9-2-6.3-4.7-1.4-2.9-3.1-6.2-10.7-7.4-15.9-2.4-31.6-11.3-44.3-24.9-10.4-11.1-19-25.4-26.5-43.9-9.4-23.1-12-41.6-8-58 2.3-10 7.8-19.1 15.4-25.7 8.3-7.2 18.2-10.6 28.5-9.8 0.6 0.1 1 0.5 1 1.1-0.5 19.8 11.7 38.5 29 44.5 5.4 1.9 11.3 2.6 17 3.3 4.6 0.5 9.4 1.1 14 2.3 10.3 2.7 21.4 10.7 21.4 21.9 0 0.9 0 2-0.1 3.1-0.4 7.6-1.1 20.3 16.6 28.2 6.4 2.8 10.1 10.2 9.7 19.2-0.8 15.5-14.5 37.8-50.3 49.4-2.7 1-4.8 1.4-6.4 1.4zm-54.9-172.4c-20 0-34.8 17.1-38.9 34-3.8 16-1.3 34 7.9 56.7 7.4 18.2 16 32.4 26.1 43.3 12.4 13.3 27.7 21.9 43.2 24.3 8.6 1.3 10.7 5.4 12.2 8.4 1.6 3.1 2.4 4.9 10.2 2.3 34.8-11.3 48-32.7 48.8-47.6 0.4-8-2.9-14.6-8.5-17.1-19-8.4-18.3-22.1-17.8-30.2q0.1-1.7 0.1-3c0-10.1-10.3-17.3-19.9-19.8-4.4-1.2-9.1-1.8-13.7-2.3-5.8-0.7-11.8-1.4-17.4-3.4-17.8-6.2-30.5-25.2-30.4-45.5q-1-0.1-1.9-0.1z"/><path  d="m1038.6 344.3c5.6 27.6 11.1 57.2-0.2 82.9-3.7 8.4-9 16-12 24.6-3.6 10.2-3.7 21.4-2.7 32.2 1.8 20.4 8 41.4 22.3 56 14.4 14.7 38.4 21.1 56.2 10.7 15.5-9 22.6-28.5 21.6-46.5-0.9-18-8.6-34.8-16.7-50.9-19.4-38.6-42.1-75.6-68.5-109z"/><path class="a" d="m1078.4 478.6c0.5-14.7-1.4-22.9-1.9-33.9 5.9-3 12.3-5 18.8-6.1 2.9-0.5 6.3-0.6 8.5 1.1 1.4 1.2 8.1-4.8 8.8-3.1 4.8 11.2 5.2 27.1 10 38.3 0.4 0.9 17.1-0.7 17.5 0.2 1.5 3.6 0.2 34-0.9 34.8-61.3 40.7-90.8-17.5-90.8-17.5 0 0 11.1-6.8 30-13.8z"/><path fill-rule="evenodd" d="m1098 525.4q-6.7 0-13-1.7c-24.9-6.5-37.4-30.6-37.5-30.9-0.3-0.4-0.1-1.1 0.4-1.3 0.1-0.1 11.1-6.8 29.4-13.7 0.3-9.3-0.4-16-1-22.5-0.4-3.4-0.7-6.8-0.9-10.5 0-0.5 0.2-0.9 0.6-1 6-3.1 12.5-5.1 19.1-6.2 3-0.5 6.6-0.8 9.3 1.2 0.6 0 2.4-1.1 3.5-1.7 2.3-1.4 3.7-2.2 4.8-1.8 0.4 0.1 0.7 0.4 0.9 0.8 2.5 5.8 3.8 12.7 5.1 19.4 1.2 6.5 2.5 13.2 4.7 18.6 1.2 0.1 5 0 7.9-0.2 8.8-0.3 9.3-0.2 9.7 0.8 1.2 2.6 0.8 15.1 0.7 18.9-0.6 16.2-1.5 16.9-1.9 17.2-14.7 9.7-28.7 14.6-41.8 14.6zm-48.1-32.6c2.4 4.3 14.3 23.3 35.6 28.9 16.1 4.2 33.9 0 52.9-12.6 1-3.1 2-28.5 0.8-33.2-1.2-0.1-5 0.1-7.8 0.2-8.8 0.3-9.4 0.2-9.8-0.8-2.4-5.7-3.7-12.6-5-19.4-1.3-6.4-2.5-13.1-4.8-18.5-0.6 0.2-1.9 1-2.8 1.5-2.6 1.5-4.6 2.7-5.8 1.7-2-1.6-5.2-1.3-7.7-0.9-6.3 1-12.3 2.9-17.9 5.6 0.2 3.4 0.5 6.5 0.8 9.8 0.7 6.7 1.4 13.7 1 23.5 0 0.4-0.3 0.8-0.7 1-15.5 5.7-25.9 11.4-28.8 13.2zm28.5-14.2z"/><path class="a" d="m1032.2 351.1c1.8 13.6 4.6 27.8 1.1 41.4-2 7.3-1.8 44.8 28.3 55.5 15.8 5.6 34 4.5 50.3-5.4 11.1-6.7 24.5-27.6 21.8-48.3 9.2 2.5 18.2-3.6 18.4-11.9 0-4.7-5.2-10.7-10.7-10.4-4.3 0.2-4.8 0.3-8.1 2.8-2.2-9.8-3.6-19.6-3.4-30.8-10.4-11.5-27.1-17.3-43.8-19.8-5.5-0.9-11.2-1.4-16.8-0.7-16 2-38.9 13.6-37.1 27.6z"/><path fill-rule="evenodd" d="m1081.1 452.5c-6.6 0-13.3-1.2-19.8-3.5-30.1-10.7-31.4-47.8-29.1-56.8 3.1-11.7 1.3-24-0.3-36q-0.4-2.5-0.7-5c-0.5-3.9 0.7-7.8 3.6-11.6 7.1-9.2 23.1-15.7 34.4-17.1 6.2-0.8 12.4-0.1 17.1 0.6 13.8 2.1 32.7 7.3 44.4 20.2q0.3 0.3 0.3 0.7c-0.2 9.6 0.8 18.8 3 28.9 2.4-1.6 3.4-1.8 7.3-1.9 2.7-0.2 5.6 1 7.9 3.3 2.5 2.3 4 5.5 3.9 8.1 0 4-2 7.8-5.5 10.4-3.5 2.6-8.2 3.7-12.6 2.9 1.9 21.1-11.6 41.2-22.5 47.8-9.9 5.9-20.6 9-31.4 9zm-47.8-101.5q0.3 2.4 0.7 4.9c1.7 12.2 3.4 24.7 0.3 36.8-1.3 5.1-3 43.4 27.7 54.3 16.5 5.9 34 4 49.4-5.3 10.4-6.3 23.9-26.8 21.3-47.3-0.1-0.3 0.1-0.7 0.3-0.9 0.3-0.2 0.7-0.3 1-0.2 4.3 1.2 8.9 0.3 12.4-2.2 2.9-2.2 4.6-5.4 4.6-8.7 0-2.1-1.2-4.6-3.2-6.6-1.9-1.8-4.3-2.8-6.4-2.7-4.2 0.2-4.4 0.2-7.5 2.5-0.2 0.2-0.6 0.3-1 0.1-0.3-0.1-0.6-0.4-0.6-0.7-2.5-10.8-3.6-20.5-3.5-30.6-11.3-12.2-29.5-17.2-42.8-19.2-4.6-0.7-10.6-1.4-16.5-0.6-10.9 1.3-26.2 7.5-33 16.3-2.6 3.4-3.7 6.7-3.2 10.1z"/><path fill-rule="evenodd" d="m1097.9 406c-4.4 0-8.6-1.6-12.2-4.7-4.1-3.5-6.8-8.6-7.5-14.2-1.5-11.8 5.9-22.4 16.5-23.8 5.2-0.7 10.4 0.9 14.5 4.5 4.2 3.5 6.9 8.6 7.6 14.3 0.7 5.6-0.6 11.2-3.7 15.7-3.1 4.5-7.7 7.4-12.9 8q-1.1 0.2-2.3 0.2zm-0.9-40.7q-1 0-2 0.1c-9.5 1.2-16.1 10.8-14.7 21.4 0.7 5.1 3.1 9.7 6.8 12.9 3.7 3.2 8.3 4.6 12.9 4 4.5-0.6 8.6-3.1 11.4-7.1 2.8-4.1 4-9.1 3.3-14.3-0.7-5.1-3.1-9.7-6.8-12.9-3.2-2.7-7-4.1-10.9-4.1z"/><path fill-rule="evenodd" d="m1043.6 408.5c-9.8 0-18.4-8.1-19.8-18.9-1.5-11.8 5.9-22.4 16.6-23.8 10.6-1.4 20.5 7 22 18.8 1.5 11.7-5.9 22.4-16.6 23.7q-1.1 0.2-2.2 0.2zm-1-40.7q-1 0-2 0.1c-9.5 1.2-16.1 10.8-14.7 21.4 1.4 10.6 10.2 18.2 19.7 16.9 9.5-1.2 16.1-10.8 14.7-21.4-1.3-9.8-9-17-17.7-17z"/><path  d="m1145.8 268.1c-5.6-18.3-24.9-28.6-43.2-23.1-18.3 5.6-28.6 24.9-23.1 43.2 5.6 18.3 24.9 28.6 43.2 23.1 18.3-5.6 28.6-24.9 23.1-43.2z"/><path  d="m1132.1 376.2c-8.8-13.7-14.1-23.5-17-40-32.5 19.2-63.2 22.1-94.3 21-0.6-5.3 0.5-17 2.7-22 5.3-12.3 12.1-22.9 30.8-31.3 13.1-5.9 30.8-9.8 45-7.7 14.2 2 26.3 9.6 36.2 18.8 7.9 7.3 14.5 19.3 16.8 31.1 2 10.2-0.4 17.6-5 28-2.5-1.4-4.9-2.8-7.9-2.2-2.9 0.5-4.8 2-7.3 4.3z"/><path  d="m1085.1 428.1c-2.4 0-4.5-0.8-6.2-2.2-0.4-0.3-0.5-1-0.1-1.5 0.4-0.4 1-0.5 1.5-0.1 2.2 1.9 5.6 2.2 8.9 0.8 3.8-1.6 6.9-4.6 8.7-8.6 0.3-0.5 0.9-0.7 1.4-0.5 0.5 0.3 0.8 0.9 0.5 1.4-2 4.4-5.5 7.8-9.7 9.6-1.7 0.7-3.4 1.1-5 1.1z"/><path  d="m1096.6 385.5c-0.2-1.7-1.9-2.9-3.7-2.7-1.8 0.3-3 1.8-2.8 3.5 0.2 1.7 1.8 2.9 3.6 2.7 1.8-0.2 3.1-1.8 2.9-3.5z"/><path  d="m1048.1 388c-0.2-1.7-1.8-2.8-3.6-2.6-1.8 0.2-3.1 1.8-2.9 3.5 0.3 1.7 1.9 2.9 3.7 2.6 1.8-0.2 3.1-1.8 2.8-3.5z"/><path  d="m1066.3 407.7q-0.2 0.1-0.4 0l-4.4-1.7c-0.5-0.2-1.5-0.6-1.9-1.5-0.4-1.2 0.4-2.3 0.8-2.8 3.3-4.5 4.4-10.3 3-15.6-0.2-0.6 0.1-1.1 0.7-1.3 0.6-0.2 1.2 0.2 1.3 0.7 1.7 5.9 0.4 12.4-3.3 17.4q-0.5 0.6-0.5 0.8c0 0 0.2 0.1 0.7 0.3l4.4 1.7c0.5 0.2 0.8 0.8 0.6 1.4-0.2 0.4-0.6 0.6-1 0.6z"/><path  d="m1060.6 381.4c-0.6 0-1.1-0.5-1.1-1 0-3 2.9-5.1 5.8-5.9 4.7-1.2 10.1 0.1 13.8 3.2 0.4 0.4 0.4 1.1 0.1 1.5-0.4 0.5-1.1 0.5-1.5 0.1-3.1-2.7-7.8-3.7-11.9-2.7-2.1 0.5-4.2 2-4.2 3.7 0 0.6-0.4 1.1-1 1.1q0 0 0 0z"/><path  d="m1114.6 376.3c-0.6 0-1.1-0.5-1.1-1.1 0-0.6 0.5-1.1 1.1-1.1h16q0 0 0 0c0.6 0 1.1 0.5 1.1 1 0 0.6-0.5 1.1-1.1 1.1l-16 0.1q0 0 0 0z"/><path  d="m1133.5 387.3q0 0 0 0c-0.6 0-1-0.4-1-1 0-4-0.8-7.9-2.3-11.5-0.2-0.6 0-1.2 0.6-1.4 0.5-0.3 1.1 0 1.4 0.5 1.6 3.9 2.4 8.2 2.4 12.4 0 0.6-0.5 1-1.1 1z"/><path class="b" d="m1251 603.8c-14.2-38.7-22-76.9-55.5-104.8-16-13.4-35.4-22.9-57.7-24.4-1.3 21.6-26.4 35.8-39.9 37.4-7.3 0.9-34.5 4.5-34.5-27.5-8.8 3.5-38.3 7.2-50.2 43.5-4.8 14.9-13.5 71.8-42 104.8-6.8 7.8-13-44.1-22.7-40.6-9.6 3.4-20.5 9-21.3 19.1-0.5 7.9 6 14.7 13.2 17.8 15.6 6.7 21.4 39.1 38.2 41.5 17.4 2.4 45.2 8.9 66.3-57 10.8 10.7 17.7 22.3 29.8 28.8 34.8 18.8 150.6 39.9 169.5 43.2 1.6 0.3 5.1-1 5.8-2.5 3.9-9.2 14.3-42.8 1-79.3z"/><path fill-rule="evenodd" d="m1244.7 686.7q-0.4 0-0.7 0c-22.3-4-135.2-24.7-169.8-43.3-8.4-4.5-14.3-11.4-20.6-18.7-2.6-3-5.3-6.1-8.2-9.1-9 27.4-19.9 44.5-33.3 52.4-11.8 6.8-22.9 5.2-31.9 3.9q-0.9-0.2-1.8-0.3c-9.5-1.3-15.6-11.6-21.4-21.5-5-8.4-10.1-17-17-20-7.3-3.1-14.4-10.2-13.8-18.9 0.6-8.4 7.8-15 21.9-20q1.6-0.6 3.1 0.2c4.4 2.2 7.9 13.2 11.2 23.8 2.2 7.1 5.2 16.9 7.3 17.3 0.2 0 0.5-0.2 0.7-0.4 22.7-26.3 32.9-68.5 38.4-91.1 1.4-5.8 2.5-10.3 3.4-13.3 10.4-31.9 34.5-39.1 46.1-42.7 1.9-0.5 3.6-1 4.7-1.5 0.4-0.1 0.7-0.1 1 0.1 0.3 0.2 0.5 0.5 0.5 0.9 0 9.7 2.6 16.9 7.6 21.4 8.1 7.2 20.7 5.7 25.5 5.1h0.2c12.9-1.5 37.6-15.4 39-36.4 0-0.3 0.1-0.6 0.3-0.8q0.4-0.3 0.8-0.2c20.7 1.3 40.4 9.6 58.3 24.5 27.8 23.3 38 53.3 48.7 85.1 2.3 6.6 4.6 13.5 7 20.2 12.1 33.1 5.1 66-1 80.2-0.7 1.8-4.2 3.1-6.2 3.1zm-199.8-74.2c0.3 0 0.5 0.1 0.7 0.3 3.5 3.5 6.6 7.1 9.6 10.5 6.2 7.1 12 13.9 20 18.2 34.4 18.5 147 39.1 169.2 43.1 1.3 0.2 4.2-1 4.6-1.9 0.6-1.5 15.8-37.9 1-78.5-2.5-6.8-4.8-13.7-7.1-20.3-10.6-31.5-20.7-61.3-48.1-84.1-17.2-14.5-36.1-22.5-56-24-1.2 11.9-9.1 20.6-15.7 25.9-7.6 6-17.5 10.5-25 11.4h-0.3c-5 0.6-18.2 2.2-27.1-5.6-5.2-4.7-8-11.9-8.3-21.5q-1.5 0.5-3.4 1.1c-12.2 3.6-34.7 10.5-44.8 41.2-0.9 2.9-2 7.5-3.4 13.2-5.5 22.8-15.7 65.3-38.8 92-1.1 1.1-2.1 1.2-2.8 1.1-3.1-0.7-5.3-7.2-8.9-18.8-2.8-9.2-6.4-20.7-10.1-22.5-0.5-0.3-0.9-0.3-1.4-0.1-13.3 4.7-20 10.6-20.5 18.2-0.5 7.6 6.1 14 12.5 16.8 7.6 3.2 12.9 12.1 18 20.8 5.9 9.9 11.4 19.3 19.9 20.5q0.9 0.1 1.8 0.3c17.2 2.5 43.3 6.3 63.4-56.5 0.1-0.4 0.4-0.7 0.7-0.8q0.2 0 0.3 0z"/><path class="a" d="m1209.4 641.2c-31.8-1.8-63.8-4-95.8-6.2-2.9-0.5-17.1-2.5-20.6-3-3-0.4-5.8-1.5-8.5-2.8-9.6-4.4-30-13-34.5-10.5-10.5 3.1-20 10.7-27.5 20.3-4.1 5.4-7.6 14.3-5.8 15.8 1.1 1 2.7 1.4 3.9 0.4 5-10.6 13.8-19.4 24.4-24.2-4.9 2.8-9.5 6.2-13.7 10.1-4.2 3.9-8 8.7-9 14.4 0 0.4-0.1 0.9 0.2 1.3 0.5 0.9 2 0.4 2.8-0.3 1.7-1.3 23.6-19.1 27.7-18.6-5.4 2-24.8 17.7-24.9 19.4 0 0.8 0.1 1.7 0.6 2.3 0.7 0.8 1.9 1.1 3 0.9 1.1-0.1 2.1-0.7 3-1.3 6.3-3.8 12-8.5 18.7-11.3 3.4-1.5 7.5-2.3 10.5-0.2-6 2.3-11.6 5.6-16.4 10q-1.1 1-1.8 2.4c-0.8 1.3-1.6 3.2-0.6 4.3 1.7 1.8 3.1 0.9 4.6 0.1 5.8-3.8 11.7-7 17.9-9.5 1.9-0.7 4.2-1.4 5.9-0.3 1.6 1 8.9 5.5 23.9 6.3 5.1 0.3 10 1.6 16.4 3.4 84.3 23.2 109.5 32.5 129.9 23.7 4-1.7 5.4-3.8 4-10.7-3.5-18.3-7-28.7-38.3-36.2z"/><path fill-rule="evenodd" d="m1226.6 692.4c-16.1 0-39.1-6.4-82.4-18.5-9.1-2.5-19.4-5.4-30.7-8.5-5.9-1.7-11.1-3.1-16.2-3.3-14-0.8-21.7-4.8-24.3-6.5-1.4-0.9-3.4-0.2-5 0.4-6.1 2.4-11.9 5.5-17.7 9.4l-0.2 0.1c-1.4 0.8-3.5 2-5.8-0.3-1.7-1.9-0.1-4.7 0.4-5.6q0.9-1.6 2.1-2.7c4.1-3.8 9-6.9 14.4-9.2-2.4-0.5-5.2 0.2-7.3 1.1-4.5 1.9-8.5 4.6-12.5 7.3-2 1.4-4 2.8-6.1 4-1.1 0.6-2.2 1.3-3.4 1.5-1.6 0.2-3.1-0.3-4-1.3-0.6-0.8-0.9-1.8-0.8-3q0-0.5 0.7-1.4-0.5 0.4-1.1 0.8-0.5 0.5-0.7 0.6c-0.8 0.6-2 1.2-3 1-0.6-0.1-1.1-0.4-1.5-1-0.2-0.4-0.3-0.8-0.3-1.2-1.5 1.1-3.6 1-5.2-0.5-2.8-2.4 2.2-12.7 5.7-17.3 8.1-10.4 17.7-17.5 27.9-20.6 5.4-2.7 26.5 6.4 35.3 10.5 2.2 1.1 5.2 2.3 8.3 2.7 0.9 0.2 2.6 0.4 4.6 0.7 5.5 0.8 13.7 2 15.9 2.4 31.3 2.1 63.6 4.3 95.7 6.1q0.1 0 0.2 0c32 7.7 35.6 18.5 39.2 37.1 1.3 6.9 0.2 9.8-4.7 11.8-5.3 2.3-10.8 3.4-17.5 3.4zm-155.2-39.3c0.9 0 1.9 0.2 2.7 0.7 2.5 1.6 9.8 5.4 23.3 6.1 5.4 0.3 10.6 1.8 16.7 3.4 11.2 3.1 21.6 6 30.7 8.6 60.7 16.9 81.2 22.7 98.5 15.2 3.3-1.4 4.7-2.8 3.4-9.5-3.5-18.2-6.8-28-37.5-35.4-32.1-1.8-64.4-4-95.7-6.1q0 0-0.1 0c-2.1-0.4-10.4-1.6-15.9-2.4-2-0.3-3.7-0.5-4.7-0.7-3.3-0.5-6.4-1.8-8.8-2.8-14.3-6.6-30.1-12.4-33.5-10.5q-0.1 0-0.2 0c-9.6 2.9-19.2 9.9-26.9 19.9-4.4 5.7-6.8 13.4-6 14.4 0.6 0.6 1.6 1 2.4 0.5 5-10.7 14.1-19.6 24.8-24.5 0.5-0.2 1.1 0 1.4 0.5 0.3 0.5 0.1 1.1-0.4 1.4-4.9 2.8-9.5 6.1-13.5 10-5.2 4.8-8 9.2-8.7 13.7-0.1 0.5-0.1 0.6 0 0.6 0.1 0.1 0.7-0.1 1.3-0.5q0.2-0.2 0.7-0.6c23.5-18.8 26.7-18.4 27.7-18.3 0.5 0.1 0.9 0.5 1 0.9 0 0.5-0.3 1-0.7 1.2-5.2 1.9-22.8 16.2-24.2 18.6 0 0.6 0.1 1.1 0.4 1.4 0.4 0.6 1.3 0.7 1.9 0.6 0.9-0.2 1.8-0.7 2.7-1.2 2-1.2 4.1-2.6 6-4 4.1-2.7 8.2-5.5 12.8-7.4 3.3-1.4 8-2.5 11.5 0 0.4 0.2 0.5 0.6 0.5 1-0.1 0.3-0.3 0.7-0.7 0.8-6.1 2.4-11.5 5.6-16 9.8q-1 0.9-1.7 2.1c-0.9 1.5-1.1 2.7-0.7 3.1 1 1.1 1.6 0.8 3.1-0.1h0.1c6-4 11.9-7.1 18.1-9.5 1.3-0.6 2.7-1 4.2-1z"/><path  d="m998.9 682.2q39.6 0.9 79.2 1.7l0.1-13.4-88.1-2.2z"/><path class="a" d="m774 559.5l172.1 0.9 59.3 121.8-170.5-0.4z"/><path fill-rule="evenodd" d="m1005.4 683.3q0 0 0 0l-170.5-0.4c-0.4 0-0.8-0.3-1-0.6l-60.9-122.4c-0.1-0.3-0.1-0.7 0.1-1 0.2-0.3 0.5-0.5 0.9-0.5q0 0 0 0l172.1 0.9c0.4 0 0.7 0.3 0.9 0.6l59.3 121.9c0.2 0.3 0.2 0.7 0 1-0.2 0.3-0.6 0.5-0.9 0.5zm-169.8-2.6l168.1 0.5-58.3-119.7-169.7-1z"/><path class="a" d="m882.8 609.1c-4.9-0.5-10.2 0.8-12.2 5.3-2 4.5-0.5 10.1 3.2 13.4 3.6 3.3 9 4.4 13.7 3.3 2.6-0.6 5.2-1.8 6.7-4 1-1.5 1.5-3.4 1.5-5.2 0-6.1-2.7-11.8-12.9-12.8z"/><path fill-rule="evenodd" d="m883.9 632.6c-4.1 0-8-1.4-10.8-4-4.1-3.7-5.6-9.9-3.5-14.6 2-4.4 6.9-6.6 13.3-6 11.5 1.2 13.9 8.2 13.8 13.9 0 2.2-0.6 4.2-1.6 5.8-1.9 2.8-5 4-7.3 4.5q-2 0.4-3.9 0.4zm-2.9-22.5c-2.9 0-7.6 0.6-9.4 4.7-1.8 4-0.5 9.1 2.9 12.3 3.2 2.9 8.1 4.1 12.8 3 2.7-0.6 4.8-1.9 6-3.6 1.1-1.6 1.3-3.4 1.3-4.6 0.1-7.1-3.8-11-11.9-11.7-0.4-0.1-1-0.1-1.7-0.1z"/><path  d="m1190.4 641.1c-0.4 0-0.8-0.2-1-0.7-12-36.3-18.7-59.2-18.7-108.9 0-0.6 0.4-1.1 1-1.1 0.6 0 1.1 0.5 1.1 1.1 0 49.4 6.7 72.2 18.6 108.2 0.2 0.6-0.1 1.2-0.7 1.4q-0.1 0-0.3 0z"/><path  d="m1044.9 614.6c-0.3 0-0.7-0.1-0.9-0.4-15.4-22.2-11.2-38.5-7.2-54.2 2-7.9 4.1-16 3.8-24.9 0-0.6 0.4-1.1 1-1.1 0.6 0 1.1 0.4 1.1 1 0.3 9.2-1.8 17.5-3.8 25.5-4.1 16-8 31.1 6.9 52.5 0.3 0.5 0.2 1.1-0.3 1.4q-0.3 0.2-0.6 0.2z"/><path  d="m1095.2 560c-15.6 0-31.3-1.4-46.4-5.2-0.2 0-0.3-0.2-0.3-0.4 0-0.2 0.2-0.3 0.4-0.3 38.6 9.7 80.1 3.9 116.8-1.2 0.2-0.1 0.4 0.1 0.4 0.3 0 0.1-0.1 0.3-0.3 0.4-22.3 3.1-46.4 6.4-70.6 6.4z"/><path  d="m1109.3 590.1c-23 0-45.9-2.7-68.2-8.2-0.1 0-0.3-0.2-0.2-0.4 0-0.2 0.2-0.3 0.4-0.3 40.8 10 84.1 10.8 125.2 2.4 0.2 0 0.4 0.1 0.5 0.3 0 0.2-0.1 0.4-0.3 0.4-18.8 3.9-38.1 5.8-57.4 5.8z"/><path  d="m1253.6 651.1q-0.2 0-0.3-0.2c-14.4-16.9-37.9-25.5-59.9-21.7-0.1 0-0.3-0.1-0.4-0.3 0-0.2 0.1-0.4 0.3-0.4 22.2-3.8 46 4.8 60.6 22 0.1 0.1 0.1 0.4-0.1 0.5q-0.1 0.1-0.2 0.1z"/><path  d="m1251 635.4q-0.1 0-0.2 0c-2.3-0.9-4.2-2.6-6-4.3-0.7-0.6-1.3-1.2-2-1.7-4.1-3.4-9-5.5-14.3-6.3-0.2 0-0.3-0.2-0.3-0.4 0.1-0.2 0.2-0.3 0.4-0.3 5.4 0.8 10.4 3 14.6 6.5q1.1 0.8 2 1.7c1.8 1.6 3.7 3.2 5.9 4.1 0.2 0.1 0.3 0.3 0.2 0.5-0.1 0.1-0.2 0.2-0.3 0.2z"/><path  d="m1251 682.8c-0.6 0-1-0.5-1-1.1 0-0.5 0.4-1 1-1 42-0.2 82.9-0.2 125.1 0 0.6 0 1.1 0.5 1.1 1 0 0.6-0.5 1.1-1.1 1.1q0 0 0 0c-42.2-0.2-83.1-0.2-125.1 0q0 0 0 0z"/><path  d="m1176.2 683.2c-361.1-0.2-727.3-0.2-1088.4 0-0.6 0-1.1-0.4-1.1-1 0-0.6 0.5-1.1 1.1-1.1 361.1-0.2 727.3-0.2 1088.4 0 0.6 0 1.1 0.5 1.1 1.1 0 0.6-0.5 1-1.1 1z"/><path  d="m719.2 682.7q0 0-0.1 0c-0.6 0-1-0.5-1-1.1 1.4-18-0.8-45.6-2.9-72.3-1-12.4-1.9-24-2.5-34.6 0-0.6 0.4-1.1 1-1.2 0.6 0 1.1 0.5 1.1 1 0.6 10.6 1.5 22.3 2.5 34.6 2.1 26.8 4.4 54.5 3 72.6-0.1 0.6-0.5 1-1.1 1z"/><path class="a" d="m415.7 396.6c-4 17.2-4.1 41.1-4.1 41.1l10.1 4.1c0 0 9.5 39.2-50.6 27.2-11.7-2.4-45.5-28-45.5-28l26.8-7.7c0 0 2.5-38.8 3.6-58.2 14 6.6 42.8 16.2 59.7 21.5z"/><path fill-rule="evenodd" d="m391.6 472.3q-9.1 0-20.7-2.3c-11.8-2.3-44.5-27.1-45.9-28.2-0.3-0.2-0.5-0.6-0.4-1 0.1-0.4 0.4-0.7 0.7-0.9l26.1-7.4c0.3-5.5 2.6-39.8 3.5-57.4 0-0.4 0.2-0.7 0.5-0.9 0.3-0.1 0.7-0.2 1 0 13.3 6.2 40.4 15.4 59.6 21.4 0.5 0.1 0.8 0.7 0.7 1.2-3.5 15.2-4 36.1-4 40.2l9.4 3.8c0.3 0.1 0.6 0.4 0.6 0.7 0.2 0.6 3.2 13.4-5.5 22.4-5.4 5.6-14 8.4-25.6 8.4zm-63.6-30.9c7 5.2 33.5 24.6 43.3 26.5 21.8 4.4 36.7 2.5 44.3-5.4 7-7.3 5.6-17.5 5.2-20l-9.6-3.8c-0.4-0.2-0.6-0.6-0.6-1 0-0.3 0.1-23.4 3.8-40.4-18.5-5.8-43.8-14.4-57.5-20.5-1 19.5-3.4 56.2-3.5 56.6 0 0.4-0.3 0.8-0.7 0.9z"/><path  d="m386.3 252.4c-26.9-1.1-53.2 16.3-51.1 30.4-12.9-3.8-27.6 20.8-27.1 32.4 0.7 14.8 29.6 63.7 35.7 71.5 2.9 3.6 5 5.3 10 6.8-0.3-4.1 3.6-6.7 3.7-10.8 0.1-5-6.7-13.9-1.4-13.7 25.5 0.6 22.2 6.3 70.5-40.7 6.2-6 10.2-20.5 11.6-31.4 1.3-10.6-6.3-42.7-51.9-44.5z"/><path fill-rule="evenodd" d="m353.8 394.6q-0.1 0-0.3-0.1c-5.4-1.6-7.6-3.5-10.5-7.2-6.4-8-35.3-57.1-35.9-72.1-0.4-8.8 7.2-23.3 15.6-29.9 3.9-3.1 7.8-4.4 11.3-3.9-0.1-4 1.9-8.3 5.7-12.6 8.1-9 26.1-18.3 46.6-17.5 18.9 0.8 33.9 7 43.2 17.9 9.1 10.8 10.3 22.9 9.7 27.8-1.4 11.6-5.6 26-11.8 32.1-43.5 42.3-45.5 42.2-64.1 41.2-2.1-0.1-4.5-0.2-7.2-0.3-0.5 0-0.8 0.1-0.9 0.2-0.4 0.7 0.7 3.5 1.4 5.3 1 2.5 2 5.1 1.9 7.2 0 2.3-1 4-2 5.8-0.9 1.6-1.8 3.1-1.6 4.9 0 0.4-0.1 0.7-0.4 0.9q-0.3 0.3-0.7 0.3zm-21.3-111.1c-3.3 0-6.3 1.7-8.5 3.4-8.6 6.8-15.1 21-14.8 28.2 0.6 14.6 29.2 63 35.5 70.9 2.4 3.1 4.2 4.7 8.1 6.1 0.2-1.8 1.1-3.2 1.9-4.7 0.9-1.5 1.7-3 1.7-4.7 0.1-1.7-0.9-4.2-1.8-6.4-1.2-3.1-2.2-5.7-1.1-7.3q0.8-1.1 2.6-1.1c2.8 0.1 5.2 0.2 7.3 0.3 17.8 0.9 19.7 1 62.5-40.6 5.8-5.7 9.8-19.6 11.2-30.8 0.6-4.6-0.6-16-9.2-26.2-9.1-10.6-23.1-16.4-41.7-17.2-19.8-0.7-37.2 8.2-45 16.9-3.8 4.2-5.5 8.5-5 12.3 0.1 0.4 0 0.7-0.3 1-0.3 0.2-0.7 0.3-1 0.2q-1.2-0.3-2.4-0.3z"/><path class="a" d="m428.2 320.7c-0.1-0.3-9.2 0.9-17-10.2-1.5 5.9-2.3 12-14.3 11.4-5.8-0.3-14.4-9.7-16.5-15.4 0 0 12.7-3.1-42.7 21.3q0.2 1.7 0.2 3.3c0.1 3.9 0.3 12.4 2.5 20.8-7.3-4.4-12.6-2.8-16 1.9-3.5 4.7-2.2 11.1 2.3 14.6 4.6 3.4 11.7 3.9 17.6 1.8 3.1 10 8.5 30.3 16.9 38.4 9 8.5 23.4 12.8 37.3 11 13.9-1.8 27.1-9.5 34.2-20.2 8.1-12.1 8.2-26.5 5.5-39.7-2.8-13.1-8.1-25.7-10-39z"/><path fill-rule="evenodd" d="m392.2 421.1c-12.1 0-23.9-4.3-31.7-11.8-7.8-7.4-12.8-24.3-16.2-35.4q-0.3-1.3-0.7-2.4c-6.2 2-13.1 1.1-17.5-2.3-5.2-3.9-6.3-11-2.6-16 3.8-5.1 9.1-6.3 15.3-3.3-1.6-7.6-1.8-14.8-1.9-18.5l-0.1-0.3q0-1.4-0.1-3.3c0-0.4 0.2-0.8 0.6-1 29.8-13.1 39.2-18 42.2-19.8q-0.1-0.1-0.1-0.2c-0.1-0.2-0.1-0.6 0.1-0.8 0.1-0.3 0.4-0.5 0.6-0.6 0.6-0.1 2.2-0.5 2.6 0.7 0.1 0.5 0.2 0.9-0.6 1.6 2.8 5.4 10.1 12.9 14.9 13.2 10.4 0.5 11.6-4.2 12.9-9.6q0.2-0.5 0.3-1c0.1-0.4 0.4-0.7 0.8-0.8 0.4-0.1 0.8 0.1 1.1 0.4 4.2 6 9.5 9.3 15.6 9.6 0.6 0.1 1.4 0.1 1.5 1 1.1 7.5 3.3 14.8 5.4 21.9 1.7 5.6 3.4 11.3 4.6 17.1 3.4 16.3 1.5 29.9-5.6 40.5-7.3 10.9-20.7 18.8-35 20.7q-3.2 0.4-6.4 0.4zm-47.9-52q0.3 0 0.5 0.1c0.3 0.1 0.5 0.4 0.6 0.7q0.4 1.5 1 3.4c3 10.2 8.2 27.4 15.6 34.5 8.8 8.4 22.7 12.5 36.4 10.8 13.7-1.8 26.5-9.3 33.4-19.8 6.8-10.1 8.6-23.2 5.3-38.9-1.2-5.7-2.8-11.4-4.5-16.9-2.1-6.9-4.2-14.1-5.3-21.4-6.1-0.4-11.3-3.4-15.6-8.7-1.4 5.2-3.5 10.6-14.8 10.1-5.6-0.3-13.3-8.1-16.5-14.1-1.2 0.8-3 1.7-5.6 3-7.2 3.7-19.3 9.2-36 16.5q0.1 1.5 0.2 2.6v0.3c0.1 4 0.3 12.3 2.4 20.4 0.1 0.4-0.1 0.8-0.4 1.1-0.4 0.2-0.8 0.2-1.2 0-6.1-3.7-11-3.2-14.6 1.6-3 4.2-2.1 9.9 2.2 13.1 4.1 3.2 10.7 3.8 16.6 1.7q0.2-0.1 0.3-0.1z"/><path  d="m418.6 341.7c0-1.6-1.5-2.9-3.2-2.9-1.8 0.1-3.2 1.5-3.1 3.1 0 1.7 1.5 3 3.2 2.9 1.8 0 3.2-1.4 3.1-3.1z"/><path  d="m375.1 350.4c0-1.6-1.5-2.9-3.2-2.9-1.8 0.1-3.2 1.5-3.1 3.1 0 1.7 1.5 3 3.2 2.9 1.8 0 3.2-1.4 3.1-3.1z"/><path  d="m393.2 400.1c-4 0-8-1.4-11-4-0.4-0.4-0.5-1.1-0.1-1.5 0.4-0.5 1.1-0.5 1.5-0.1 4.1 3.5 10.2 4.5 15.1 2.4 0.6-0.2 1.2 0 1.4 0.6 0.2 0.5 0 1.1-0.5 1.3-2.1 0.9-4.2 1.3-6.4 1.3z"/><path  d="m398.6 382.5q-0.1 0-0.2 0c-3.3 0-6.4-1.3-8.4-3.5-0.4-0.4-0.4-1.1 0.1-1.5 0.4-0.4 1.1-0.4 1.5 0.1 1.6 1.7 4.1 2.8 6.9 2.8 2.4 0 4.9-0.7 7.6-2.1 0.9-0.5 1.9-1.1 2.5-2 0.7-1.1 0.8-2.7 0.2-4.3-0.5-1.3-1.3-2.5-2.2-3.8l-0.4-0.6c-5.1-7.5-8.5-16.1-9.7-25.1-0.1-0.6 0.3-1.1 0.9-1.2 0.6-0.1 1.1 0.3 1.2 0.9 1.2 8.6 4.4 17 9.3 24.2l0.4 0.6c1 1.3 1.9 2.7 2.5 4.3 0.8 2.3 0.7 4.5-0.4 6.2-0.8 1.3-2.1 2.1-3.3 2.7-2.9 1.5-5.8 2.3-8.5 2.3z"/><path  d="m342 359.6c-0.4 0-0.8-0.3-1-0.7-1-3.6-1.4-5.5-2.3-9-0.1-0.6 0.2-1.2 0.8-1.3 0.6-0.1 1.1 0.2 1.3 0.8 0.8 3.4 1.3 5.3 2.3 8.9 0.1 0.6-0.2 1.1-0.8 1.3q-0.1 0-0.3 0z"/><path class="b" d="m342 589c6.9-60.4 6.7-120 1.7-154.3-23.6 1.5-63.8 7.6-80.8 21.8-35.4 29.5-35.4 76.6-43.8 120.6-7.7 40.4-11.2 80.2-0.4 94.1 1.1 1.3 9 6.6 10.7 6.3 5-0.9 39.4-37 39.4-26.3 0 21.7-2.7 30.5-2.7 30.5h59.6c0 0 14-72.2 16.3-92.7z"/><path fill-rule="evenodd" d="m325.7 682.7h-59.6c-0.3 0-0.6-0.1-0.8-0.4-0.2-0.3-0.3-0.6-0.2-1 0 0 2.7-8.9 2.7-30.1 0-0.4-0.1-0.8-0.3-0.8-2.6-1.2-15.6 10.2-23.5 17-7.9 6.9-12.5 10.8-14.4 11.1-2.4 0.4-10.8-5.5-11.7-6.7-11.9-15.2-6.5-60 0.2-94.9 1.5-8.3 2.8-16.7 4.1-24.9 5.4-35.5 11-72.1 40-96.3 16.1-13.5 54-20.3 81.5-22.1 0.5 0 1 0.4 1.1 0.9 5.4 37.4 4.7 98.1-1.7 154.6-2.4 20.3-16.2 92-16.3 92.8-0.1 0.5-0.5 0.8-1.1 0.8zm-58.2-2.1h57.4c1.5-8.2 13.9-72.7 16-91.8 6.4-55.8 7.1-115.7 1.9-153-27.1 1.8-63.7 8.5-79.2 21.5-28.4 23.7-33.7 58.3-39.3 95-1.3 8.2-2.6 16.7-4.2 25-9.4 49.4-9.6 81.6-0.5 93.2 1 1.3 8.2 5.9 9.6 5.9q0 0 0 0c1.5-0.2 7.8-5.8 13.4-10.6 13.3-11.6 22.2-19 25.8-17.4 0.7 0.3 1.5 1.1 1.5 2.8 0 17.1-1.7 26.2-2.4 29.4z"/><path class="b" d="m522.1 650.3c18.4-2.2 35-70.9 7-75.7-3.9-0.7-20.2-66.1-53-107.4-17.5-22-54.7-27.4-60.1-29.5 24.1 41.6-14 244-14 244l49.9 0.1c0 0 11.3-74.6 13.4-91.8 1.6 9.8 14.1 31.8 28.3 48.7 5.3 6.3 10.1 5.1 13.4 8.4 3.8 3.8 10.8 3.7 15.1 3.2z"/><path fill-rule="evenodd" d="m451.9 682.8q0 0 0 0l-49.9-0.1c-0.3 0-0.6-0.1-0.8-0.4-0.2-0.2-0.3-0.5-0.2-0.8 0.4-2.1 37.7-202.5 14.1-243.3-0.2-0.4-0.2-0.9 0.1-1.2 0.3-0.4 0.8-0.5 1.2-0.3 0.9 0.3 2.9 0.8 5.4 1.5 12.1 2.9 40.5 9.9 55.1 28.3 22.7 28.5 37.7 69.1 45.8 90.8 2.9 7.9 5.6 15.3 6.7 16.3 10.4 1.8 16.1 12.4 15.7 29.1-0.5 20.9-10.8 47.2-22.9 48.7-4.1 0.5-11.7 0.7-16-3.6-1.2-1.2-2.6-1.7-4.3-2.4-2.6-0.9-5.8-2.1-9.1-6-11.8-14-23.1-32.6-27.1-44-3.2 23.3-12.7 85.8-12.8 86.5-0.1 0.5-0.5 0.9-1 0.9zm-48.6-2.2l47.6 0.1c1.3-8.6 11.4-74.8 13.3-90.8 0.1-0.5 0.5-0.9 1.1-0.9 0.5 0 0.9 0.3 1 0.9 1.7 9.9 14.5 32 28.2 48.1 2.9 3.5 5.7 4.5 8.1 5.5 1.9 0.6 3.6 1.3 5.1 2.8 3.8 3.8 11.2 3.3 14.2 3 9.9-1.2 20.5-24.8 21.1-46.6 0.1-7.4-0.9-24.8-14.1-27.1-1.7-0.2-2.8-3.1-8.2-17.5-8-21.7-23-62-45.4-90.3-14.2-17.8-42.1-24.7-54-27.6q-1.8-0.4-3.2-0.8c9 19 9.3 64.7 1 136-5.9 50.4-14.3 97-15.8 105.2z"/><path  d="m279.6 637.4q-0.1 0-0.3 0c-0.5-0.2-0.9-0.7-0.7-1.3 4.9-18.9 7.9-38.4 12-65.4 2.8-18.4 6.2-41.3 11.3-70.3 0.1-0.6 0.7-1 1.2-0.9 0.6 0.1 1 0.6 0.9 1.2-5.1 29-8.5 51.9-11.3 70.3-4.2 27.1-7.1 46.6-12.1 65.6-0.1 0.5-0.5 0.8-1 0.8z"/><path fill-rule="evenodd" d="m465.3 591.1c-0.3 0-0.6-0.1-0.8-0.4-0.3-0.3-0.4-0.7-0.2-1.1 0.5-1.8 1.9-19.5 3.5-38.2 1-11.6 2.1-24.8 3.1-36.1 0-0.6 0.5-1 1.1-1 0.6 0.1 1 0.6 1 1.2-1 11.3-2.1 24.5-3.1 36.1-3.2 38.6-3.3 38.7-3.9 39.2q-0.3 0.3-0.7 0.3zm-0.7-1.9q0 0 0 0 0 0 0 0zm0 0q0 0 0 0 0 0 0 0z"/><path  d="m217.2 636.7q-0.2 0-0.3-0.1c-0.1-0.1-0.1-0.3 0-0.5 13.6-13.5 35.9-20.4 56.6-17.4 0.2 0 0.3 0.2 0.3 0.4 0 0.2-0.2 0.3-0.4 0.3-20.5-2.9-42.5 3.8-56 17.2q-0.1 0.1-0.2 0.1z"/><path  d="m218.9 643.2c-0.2 0-0.3 0-0.4-0.2-0.1-0.2 0-0.4 0.2-0.4 2.4-1 4.3-2.7 6.2-4.4 0.7-0.7 1.4-1.3 2.1-1.9 4.5-3.6 9.8-6 15.5-6.8 0.2 0 0.3 0.1 0.4 0.3 0 0.2-0.1 0.4-0.3 0.4-5.6 0.8-10.8 3.1-15.1 6.7-0.7 0.6-1.4 1.2-2.1 1.8-1.9 1.7-4 3.5-6.4 4.5q-0.1 0-0.1 0z"/><path  d="m390.6 485.2c-10.9 0-21.9-2.5-31.7-7.4-0.2-0.1-0.3-0.3-0.2-0.4 0.1-0.2 0.3-0.3 0.5-0.2 13.1 6.5 28.2 8.7 42.6 6.4 7.7-1.3 13-3.7 16.4-7.6 0.2-0.1 0.4-0.1 0.5 0 0.2 0.1 0.2 0.3 0.1 0.5-3.5 4-9 6.5-16.8 7.8q-5.7 0.9-11.4 0.9z"/><path class="a" d="m601.9 519.6c11.8-11.7 6.9-19.8 20.1-35.4 5.4-6.5 10.7-12.1 15.6-17.2 2.5-2.7 4.8-6.2 7.5-4 3.1 2.7-0.3 9.8-1.9 12.1-6.1 8.9-5.6 11.8-5.3 15.1 10.4-8 26.5-18.6 38.9-22.7 1-0.3 3.4-0.1 4 0.7 0.8 1.1 0 4-1.8 5.3-7.4 5.3-18.4 12.9-25.8 18.2 13.5-8.5 31.1-19.3 33.9-15.8 0.9 1.1 0.4 4.1-1.5 5.5-8 5.9-18.6 13.1-26.7 19 6.9-5.9 28.3-18.5 30-14 1.7 4.5-18.1 16.9-26.4 22 6.7-4.2 22.5-14.1 24.3-9.9 1.4 3.2-3.4 6-5 7.3-12.6 9.7-27.4 23.1-41.2 28-3.2 1.2-8.2 1.7-11 3.8-3 2.2-4.6 4.7-7 7.5-67.7 77-89.1 103.2-101.3 100.6-10.2-2.2-2.6-43.9 7.8-71.1 5.5 0.2 47.9-30 72.8-55z"/><path fill-rule="evenodd" d="m522.9 646.9q-0.9 0-1.8-0.2-2.4-0.5-3.7-3c-5.5-10.1 1.2-44.7 10.7-69.5 0.2-0.4 0.6-0.7 1-0.7q0.1 0 0.1 0c5.1 0 46.3-28.9 72-54.6 5.7-5.7 7.3-10.4 9.2-15.8 1.9-5.5 4-11.6 10.7-19.6 5.4-6.3 10.5-11.7 15.7-17.2q0.6-0.6 1.1-1.3c2.2-2.3 4.8-5.3 7.8-2.8 4 3.4-0.3 11.5-1.6 13.5-4.6 6.8-5.3 9.9-5.3 12.5 10.9-8.2 26.1-17.9 37.7-21.7 1.1-0.3 4.1-0.3 5.1 1.1 0.5 0.6 0.7 1.6 0.5 2.6-0.2 1.3-1 3.1-2.5 4.2-1.5 1.1-3.1 2.2-4.8 3.4 7.6-3.8 11.6-4.5 13.1-2.5 0.6 0.7 0.8 1.7 0.7 2.9-0.3 1.7-1.1 3.2-2.4 4.1q-2.3 1.6-4.8 3.4c2.8-1 5.2-1.6 6.7-1.2 1.1 0.3 1.6 1 1.8 1.5 0.3 1 1.3 3.5-8.7 11.2 2.1-0.7 3.8-1 4.9-0.6 0.8 0.3 1.4 0.8 1.7 1.5 1.5 3.5-2.5 6.5-4.7 8q-0.4 0.3-0.6 0.5c-2.4 1.9-4.9 3.8-7.5 5.9-10.6 8.6-22.7 18.3-34 22.3-1.2 0.4-2.5 0.8-3.9 1.1-2.6 0.6-5.2 1.3-6.9 2.5-2 1.5-3.4 3.2-4.9 5.1q-0.9 1.1-1.9 2.3-9.6 10.8-17.9 20.4c-51.6 58.9-70.8 80.7-82.6 80.7zm7-71.3c-9.2 24.2-15.7 57.9-10.7 67.1q0.9 1.7 2.3 2c10.4 2.2 30-20.2 82.4-79.9q8.3-9.6 17.9-20.4 1-1.2 1.8-2.3c1.6-1.9 3.1-3.7 5.3-5.4 2.1-1.5 4.9-2.2 7.7-2.8 1.4-0.4 2.6-0.7 3.7-1.1 10.9-3.9 22.9-13.5 33.4-21.9 2.6-2.1 5.1-4.1 7.5-6q0.3-0.2 0.7-0.5c1.7-1.2 4.8-3.5 3.9-5.5 0-0.1-0.1-0.2-0.3-0.3-2.8-0.8-12.1 4.4-18.3 8.2q-2 1.2-4.2 2.5c-0.5 0.3-1.1 0.2-1.4-0.3-0.3-0.5-0.2-1.2 0.3-1.5l0.2-0.1q1.9-1.2 3.7-2.3c22.8-14.2 22.2-18 22.1-18.4 0 0-0.1-0.1-0.3-0.2-2.8-0.7-12 3.9-19.6 8.7-3 2.1-5.9 4.1-8.5 6-0.4 0.4-1.1 0.3-1.4-0.2-0.4-0.4-0.3-1.1 0.1-1.4 1.9-1.7 5-3.9 8.5-6.1q2.5-1.7 4.9-3.5c4.6-3.2 9.4-6.5 13.4-9.4 0.9-0.7 1.3-1.8 1.4-2.7 0.1-0.6 0-1.1-0.1-1.3-0.2-0.3-1.8-1.4-11.7 3.6-6.4 3.3-14.1 8.1-20.8 12.4-0.5 0.3-1.1 0.2-1.5-0.3-0.3-0.5-0.2-1.1 0.3-1.5 3.7-2.6 8.3-5.8 12.9-9 4.5-3.2 9.1-6.5 12.9-9.1 0.9-0.7 1.5-1.9 1.6-2.8 0.1-0.6 0-1-0.1-1.1-0.3-0.3-2.1-0.5-2.7-0.3-12 3.9-27.8 14.2-38.7 22.6-0.3 0.2-0.7 0.3-1 0.1-0.4-0.2-0.6-0.5-0.7-0.9v-0.3c-0.3-3.4-0.6-6.5 5.5-15.5 1.6-2.3 4.4-8.7 2.1-10.6-1.3-1.1-2.3-0.3-4.9 2.6q-0.6 0.6-1.1 1.2c-5.2 5.5-10.4 11-15.6 17.2-6.5 7.6-8.5 13.3-10.4 18.9-1.9 5.4-3.7 10.6-9.7 16.6-22.8 22.8-64.2 53.3-72.8 55.2z"/><path  d="m637.2 518.1c-0.3 0-0.6-0.1-0.8-0.4-0.4-0.4-0.3-1.1 0.1-1.5 4.8-4 6.6-11.2 4.3-17-0.5-1.1-1.1-2.2-1.7-3.3-0.8-1.5-1.7-3.1-2.2-4.8-0.2-0.6 0.2-1.2 0.7-1.4 0.6-0.1 1.2 0.2 1.3 0.8 0.5 1.5 1.3 2.9 2.1 4.4 0.6 1.1 1.2 2.3 1.7 3.5 2.7 6.7 0.7 14.8-4.8 19.4q-0.3 0.3-0.7 0.3z"/><path  d="m504.4 639.4c-0.2 0-0.3-0.1-0.4-0.3-2.8-18.3-0.3-37.6 7.2-54.6 0.1-0.1 0.3-0.2 0.5-0.1 0.2 0 0.2 0.2 0.2 0.4-7.5 16.8-10 36.1-7.2 54.2 0.1 0.2-0.1 0.4-0.3 0.4q0 0 0 0z"/><path  d="m496.1 636.4c-0.1 0-0.3-0.1-0.3-0.2-1.9-6.5-2.1-13.4-0.6-20 0-0.2 0.2-0.3 0.4-0.2 0.2 0 0.3 0.2 0.3 0.4-1.5 6.4-1.3 13.2 0.6 19.6 0 0.2-0.1 0.4-0.3 0.4q0 0-0.1 0z"/><path class="a" d="m268.6 636.1c33.2 5.6 66.7 10.8 100.2 16.1 3.1 0.1 18.3 1.4 22 1.7 3.2 0.2 6.4-0.3 9.5-0.9 10.8-2.3 33.9-6.5 38-2.8 10.1 5.7 18.2 15.7 23.6 27.4 3.1 6.5 4.5 16.5 2.4 17.7-1.4 0.7-3.2 0.8-4.2-0.6-2.7-12.1-9.7-23.2-19.6-30.7 4.5 4.1 8.5 8.7 11.8 13.7 3.4 5 6.3 10.8 6 16.9-0.1 0.5-0.1 1-0.5 1.4-0.8 0.8-2.2-0.1-2.9-1-1.4-1.8-19.8-25.2-24.2-25.7 5.2 3.4 21.5 24.1 21.2 25.9-0.2 0.8-0.5 1.6-1.2 2.2-0.9 0.7-2.2 0.7-3.3 0.2-1.1-0.4-2-1.2-2.8-2-5.6-5.4-10.4-11.6-16.7-16.1-3.1-2.3-7.2-4.1-10.8-2.6 5.7 3.8 10.8 8.5 14.6 14.1q0.9 1.4 1.4 2.9c0.5 1.6 0.9 3.8-0.4 4.6-2.2 1.5-3.5 0.2-4.8-1-5-5.3-10.4-9.9-16.2-13.9-1.8-1.3-4.1-2.5-6.1-1.7-1.8 0.6-10.4 3.6-26.1 0.9-5.3-1-10.7-0.7-17.7-0.4-92.5 4.2-120.6 7.9-139.6-5.9-3.8-2.8-4.7-5.2-1.7-12 8-18.1 14-28 48.1-28.4z"/><path fill-rule="evenodd" d="m430.8 700.3c-1.5 0-2.6-1.1-3.5-1.9l-0.1-0.1c-5.2-5.4-10.5-9.9-16.1-13.8-1.6-1.1-3.5-2.2-5.2-1.6-3.1 1.1-11.9 3.4-26.5 0.9-5.4-0.9-11-0.7-17.6-0.4-12.3 0.6-23.6 1.2-33.6 1.7-67.2 3.3-89.9 4.4-106.7-7.8-4.5-3.2-4.9-6.5-2-13.2 8.1-18.3 14.3-28.7 49.1-29.1q0 0 0.1 0c33.8 5.7 67.6 11 100.3 16.1 2.3 0.1 10.6 0.8 16.8 1.3 2.2 0.2 4.1 0.3 5.1 0.4 3.3 0.3 6.7-0.3 9.2-0.9 10.1-2.1 33.9-6.6 38.8-2.5 9.8 5.4 18.1 15 24 27.7 2.6 5.6 5.1 17.3 1.9 19.1-2.1 1.1-4.3 0.8-5.6-0.8q0 0 0 0c-0.1 0.4-0.2 0.9-0.6 1.3-0.4 0.4-1 0.7-1.7 0.6-1.1 0-2.2-0.9-2.8-1.7q-0.2-0.2-0.6-0.7-0.7-0.8-1.3-1.6 0.8 1.5 0.7 2.1c-0.2 1.2-0.7 2.2-1.5 2.8-1.2 0.9-2.9 1.1-4.4 0.4-1.2-0.5-2.2-1.4-3.1-2.2-1.9-1.8-3.7-3.8-5.5-5.6-3.4-3.7-7-7.5-11.1-10.5-2-1.4-4.8-2.9-7.5-2.9 5.1 3.7 9.4 8.1 12.8 13q1 1.5 1.5 3.2c0.3 1.1 1.3 4.4-0.9 5.8-0.8 0.6-1.6 0.9-2.4 0.9zm-23.9-19.7c1.9 0 3.8 1.1 5.4 2.1 5.8 4 11.1 8.6 16.4 14.1h0.1c1.3 1.3 1.9 1.8 3.3 0.9 0.5-0.4 0.5-1.6 0-3.5q-0.4-1.4-1.2-2.6c-3.7-5.3-8.5-10-14.4-13.8-0.3-0.2-0.5-0.6-0.4-1 0-0.4 0.3-0.7 0.6-0.9 4.2-1.7 8.8 0.5 11.8 2.7 4.3 3.1 8 7 11.5 10.7 1.7 1.9 3.5 3.8 5.3 5.5 0.8 0.8 1.6 1.5 2.5 1.9 0.8 0.3 1.7 0.3 2.2-0.2 0.4-0.2 0.7-0.7 0.8-1.4-0.8-2.6-15.8-21.7-20.7-24.9-0.4-0.3-0.5-0.8-0.4-1.3 0.2-0.4 0.7-0.7 1.1-0.7 1.1 0.1 4.5 0.5 24.3 25.3q0.5 0.6 0.6 0.8c0.6 0.6 1.2 1 1.4 0.9 0 0 0.1-0.1 0.1-0.6 0.3-4.9-1.5-10.1-5.7-16.3-3.4-5-7.3-9.5-11.7-13.5-0.4-0.4-0.4-1-0.1-1.4 0.4-0.5 1-0.5 1.5-0.2 9.9 7.6 17.1 18.9 19.9 31 0.7 0.8 1.8 0.6 2.7 0.2 1.1-0.9 0.3-9.6-2.8-16.4-5.7-12.1-13.9-21.7-23.2-26.8q-0.1-0.1-0.2-0.2c-3-2.7-20.8-0.5-37.1 3-2.6 0.6-6.2 1.2-9.8 0.9-1-0.1-2.9-0.2-5.1-0.4-5.8-0.5-14.6-1.2-16.8-1.3q-0.1 0-0.1 0c-32.7-5.1-66.5-10.3-100.2-16-33.4 0.4-39.1 9.8-47 27.7-2.9 6.7-1.8 8.5 1.3 10.7 16.2 11.8 38.6 10.7 105.2 7.3 10.1-0.4 21.4-1 33.7-1.6 6.7-0.3 12.4-0.5 18 0.4 14.1 2.5 22.6 0.2 25.5-0.8q0.9-0.3 1.7-0.3z"/><path class="a" d="m1253 350.5c-9.4-1.2-18.4-5.4-25.5-12.5-17.3-17.3-17.3-45.3 0-62.6 15.9-15.9 40.9-17.1 58.2-3.7l14.7-14.7c-25.5-21.4-63.5-20.1-87.5 3.9-25.3 25.3-25.3 66.3 0 91.6 11.2 11.2 25.5 17.5 40.1 18.8z"/><path fill-rule="evenodd" d="m1253 372.3q-0.1 0-0.1 0c-15.4-1.3-29.8-8.1-40.8-19-12.4-12.4-19.2-29-19.2-46.6 0-17.6 6.8-34.1 19.2-46.6 11.8-11.7 27.4-18.5 43.9-19.2 16.5-0.7 32.5 4.8 45 15.3 0.3 0.2 0.4 0.5 0.4 0.8 0 0.3-0.1 0.6-0.3 0.8l-14.6 14.6c-0.4 0.4-1 0.5-1.4 0.1-17.2-13.2-41.6-11.6-56.9 3.7-8.1 8.2-12.6 19-12.6 30.5 0 11.5 4.5 22.4 12.6 30.5 6.8 6.8 15.4 11.1 24.9 12.3 0.5 0.1 0.9 0.5 0.9 1v20.8c0 0.3-0.1 0.6-0.3 0.8q-0.3 0.2-0.7 0.2zm5.8-129.2c-16.4 0-32.9 6.2-45.2 18.5-12 12.1-18.6 28.1-18.6 45.1 0 17 6.6 33.1 18.6 45.1 10.3 10.3 23.9 16.8 38.3 18.3v-18.6c-9.6-1.5-18.3-5.9-25.2-12.8-8.5-8.5-13.2-19.9-13.2-32 0-12.1 4.7-23.4 13.2-32 15.8-15.8 41-17.7 58.9-4.4l13.2-13.2c-11.6-9.4-25.8-14-40-14z"/><path  d="m1293.7 279.7c6.2 8 9.3 17.6 9.2 27.2l20.6 2.3c0.6-15.6-4.4-31.4-15.1-44.1z"/><path fill-rule="evenodd" d="m1323.5 310.3q-0.1 0-0.1 0l-20.6-2.4c-0.5 0-0.9-0.5-0.9-1 0-9.6-3.2-19-9-26.5-0.3-0.4-0.3-1 0.1-1.4l14.7-14.7q0.3-0.3 0.8-0.3c0.2 0 0.5 0.2 0.7 0.4 10.5 12.5 16 28.5 15.3 44.9 0 0.3-0.1 0.6-0.3 0.8q-0.3 0.2-0.7 0.2zm-19.5-4.4l18.5 2.2c0.3-15.1-4.7-29.7-14.2-41.4l-13.1 13.1c5.5 7.6 8.6 16.8 8.8 26.1z"/><path class="b" d="m1301.4 318.2c-1.9 7.2-5.7 14.1-11.4 19.8-7.2 7.2-16.3 11.4-25.6 12.6v20.7c14.6-1.3 28.9-7.5 40.2-18.8 9.1-9.1 14.9-20.2 17.5-32z"/><path fill-rule="evenodd" d="m1264.4 372.3q-0.5 0-0.8-0.2c-0.2-0.2-0.3-0.5-0.3-0.8v-20.7c0-0.6 0.4-1 0.9-1.1 9.6-1.2 18.2-5.5 25-12.3 5.4-5.3 9.3-12 11.2-19.3 0.1-0.5 0.6-0.8 1.1-0.8l20.7 2.4c0.3 0 0.5 0.2 0.7 0.4 0.2 0.3 0.3 0.6 0.2 0.9-2.7 12.3-8.8 23.5-17.8 32.5-10.9 10.9-25.4 17.7-40.8 19q-0.1 0-0.1 0zm1-20.8v18.6c14.5-1.5 28.1-8 38.4-18.3 8.4-8.4 14.2-18.9 17-30.3l-18.6-2.2c-2.1 7.3-6.1 14-11.5 19.4-6.9 7-15.6 11.4-25.3 12.8z"/><path  d="m456.8 238.6l-2-8.6 18.5-4.3 2.1 8.6z"/><path fill-rule="evenodd" d="m456.8 239.7c-0.5 0-0.9-0.4-1-0.9l-2-8.6c-0.1-0.2 0-0.5 0.1-0.8 0.2-0.2 0.4-0.4 0.7-0.4l18.5-4.4c0.6-0.1 1.1 0.3 1.3 0.8l2 8.6c0 0.3 0 0.6-0.1 0.8-0.2 0.3-0.4 0.5-0.7 0.5l-18.5 4.3q-0.2 0.1-0.3 0.1zm-0.7-8.9l1.5 6.5 16.5-3.8-1.6-6.6z"/><path class="a" d="m491.5 132.1c-6.2-26.5-32.9-42.8-59.4-36-24.8 6.5-40.4 31.5-35.3 56.5 2.7 13.8 11 24.9 21.9 31.7 12 7.4 20.9 12 24.1 25.8l32.5-7.6c-3.1-13.6 2.4-21.6 9.9-33.4 6.7-10.6 9.4-23.8 6.3-37z"/><path fill-rule="evenodd" d="m442.8 211.2c-0.5 0-0.9-0.4-1.1-0.9-2.9-12.4-10.6-17.1-21.3-23.7q-1.1-0.7-2.2-1.4c-11.8-7.3-19.7-18.8-22.5-32.3-2.5-12.4-0.1-25.2 6.6-36.1 6.8-10.8 17.3-18.5 29.6-21.7 13-3.4 26.5-1.4 38 5.6 11.6 7 19.6 18 22.6 31.1q0 0 0 0c3.1 13.1 0.8 26.6-6.4 37.9l-0.8 1.2c-7.2 11.2-11.9 18.7-8.9 31.3 0 0.3 0 0.6-0.2 0.8-0.1 0.3-0.4 0.5-0.6 0.5l-32.6 7.6q-0.1 0.1-0.2 0.1zm1.6-115.6c-4 0-8 0.5-12 1.6-24.4 6.3-39.6 30.6-34.6 55.2 2.6 13 10.2 24 21.5 31q1.1 0.7 2.3 1.4c10.4 6.4 18.7 11.5 21.9 24l30.6-7.1c-2.7-12.9 2.4-21 9.4-32l0.8-1.2c6.9-10.8 9.1-23.7 6.2-36.2-3-12.5-10.6-23.1-21.7-29.8-7.5-4.5-15.9-6.9-24.4-6.9z"/><path class="b" d="m441.3 217.4l-3.5-15.2 38.5-9 3.6 15.2c2.4 10.6-4.2 21.3-14.8 23.7-10.7 2.5-21.3-4.1-23.8-14.7z"/><path fill-rule="evenodd" d="m456.9 234.7c-7.2 0-13.8-5-15.5-12.3l-4.7-20c-0.1-0.6 0.3-1.1 0.8-1.3l38.6-9c0.2 0 0.5 0 0.8 0.2 0.2 0.1 0.4 0.4 0.4 0.6l4.7 20c2 8.5-3.4 17.2-11.9 19.2l-9.5 2.2q-1.9 0.4-3.7 0.4zm-13.4-12.8c0.8 3.6 3 6.6 6.1 8.6 3.2 1.9 6.9 2.6 10.5 1.7l9.5-2.2c7.4-1.7 12.1-9.2 10.3-16.6l-4.4-19-36.5 8.6z"/><path  d="m443.8 208.4c-0.2 0-0.3-0.1-0.3-0.2-0.1-0.2 0-0.4 0.2-0.4l29.7-7c0.2 0 0.4 0.1 0.5 0.3 0 0.2-0.1 0.4-0.3 0.4l-29.7 6.9q-0.1 0-0.1 0z"/><path  d="m433.1 162.8c-0.1 0-0.3-0.1-0.3-0.3-0.1-0.2 0.1-0.4 0.3-0.4l29.7-6.9c0.2-0.1 0.4 0 0.4 0.2 0 0.2-0.1 0.4-0.3 0.4l-29.7 7q0 0-0.1 0z"/><path  d="m428.8 77.9c-0.5 0-0.9-0.3-1-0.8l-4.3-18.3c-0.1-0.6 0.2-1.2 0.8-1.3 0.6-0.1 1.1 0.2 1.3 0.8l4.2 18.3c0.2 0.6-0.2 1.1-0.7 1.3q-0.2 0-0.3 0z"/><path  d="m484.3 83.7q-0.3 0-0.6-0.2c-0.5-0.3-0.6-0.9-0.3-1.4l9.9-16c0.3-0.5 1-0.6 1.5-0.3 0.5 0.3 0.6 1 0.3 1.5l-9.9 15.9c-0.2 0.3-0.6 0.5-0.9 0.5z"/><path  d="m513.9 124.4c-0.5 0-0.9-0.3-1-0.8-0.1-0.6 0.2-1.2 0.8-1.3l18.3-4.3c0.5-0.1 1.1 0.2 1.2 0.8 0.2 0.6-0.2 1.2-0.8 1.3l-18.2 4.3q-0.2 0-0.3 0z"/><path  d="m384.5 107q-0.3 0-0.5-0.2l-16-9.9c-0.5-0.3-0.6-0.9-0.3-1.4 0.3-0.5 0.9-0.7 1.4-0.4l16 9.9c0.5 0.3 0.6 1 0.3 1.5-0.2 0.3-0.5 0.5-0.9 0.5z"/><path  d="m357.7 160.9c-0.5 0-0.9-0.4-1-0.9-0.2-0.5 0.2-1.1 0.8-1.2l18.2-4.3c0.6-0.1 1.2 0.2 1.3 0.8 0.1 0.6-0.2 1.1-0.8 1.3l-18.3 4.2q-0.1 0.1-0.2 0.1z"/><path  d="m450 199.5c-0.5 0-0.9-0.3-1.1-0.8-0.1-0.4-9.5-33.4-28.2-44-0.5-0.2-0.7-0.9-0.4-1.4 0.3-0.5 0.9-0.7 1.5-0.4 19.4 10.9 28.8 43.8 29.2 45.2 0.1 0.6-0.2 1.2-0.8 1.3q-0.1 0.1-0.2 0.1z"/><path  d="m463.7 196.2c-0.5 0-0.9-0.3-1-0.8-0.3-1.4-6.5-35.1 6.1-53.5 0.4-0.5 1-0.6 1.5-0.3 0.5 0.4 0.6 1 0.3 1.5-12.1 17.7-5.9 51.6-5.9 51.9 0.2 0.6-0.2 1.1-0.8 1.2q-0.1 0-0.2 0z"/><path  d="m421.1 154.5c-0.5 0-0.9-0.4-1-0.9-0.1-0.5 0.2-1.1 0.8-1.2 1.6-0.4 2.2-1.4 2.9-2.6 0.8-1.3 1.8-2.9 4.2-3.5 2.5-0.5 4.1 0.5 5.3 1.3 1.2 0.8 2.2 1.4 3.8 1 1.5-0.4 2.1-1.3 2.9-2.5 0.7-1.3 1.7-3 4.2-3.5 2.4-0.6 4 0.4 5.3 1.2 1.2 0.8 2.1 1.4 3.7 1 1.6-0.4 2.2-1.3 2.9-2.5 0.8-1.3 1.8-2.9 4.2-3.5 2.5-0.6 4.1 0.4 5.4 1.3 1.2 0.7 2.1 1.3 3.7 0.9 0.5-0.1 1.1 0.3 1.3 0.8 0.1 0.6-0.3 1.2-0.8 1.3-2.5 0.6-4.1-0.4-5.4-1.3-1.2-0.7-2.1-1.3-3.7-0.9-1.6 0.3-2.1 1.3-2.9 2.5-0.8 1.3-1.7 2.9-4.2 3.5-2.5 0.6-4-0.5-5.3-1.3-1.2-0.7-2.2-1.3-3.7-1-1.6 0.4-2.2 1.4-2.9 2.6-0.8 1.3-1.8 2.9-4.3 3.5-2.4 0.5-4-0.5-5.3-1.3-1.2-0.8-2.1-1.4-3.7-1-1.6 0.4-2.2 1.3-2.9 2.5-0.8 1.3-1.8 3-4.2 3.5q-0.1 0.1-0.3 0.1z"/><path class="a" d="m236 418.2l-6.5-4.3c-8.1-5.3-19.2-1.7-22.5 7.5l-2.7 7.2c-10.6-1.4-8.8-1.1-19.4-2.5l-0.7-7.7c-0.8-9.7-10.6-16.1-19.8-13l-7.3 2.5c-5.6-9.2-4.6-7.6-10.2-16.8l5.6-5.3c7.1-6.8 6-18.3-2.2-23.6l-6.5-4.2c3.7-10.1 3.1-8.3 6.8-18.4l7.6 1c9.7 1.4 18.1-6.7 17.1-16.4l-0.7-7.7c10.1-3.4 8.4-2.8 18.5-6.1l4 6.6c5 8.4 16.5 9.9 23.5 3l5.5-5.3c9 5.8 7.5 4.8 16.4 10.7l-2.7 7.2c-3.4 9.1 2.6 19.1 12.3 20.3l7.6 1c1 10.6 0.9 8.8 1.9 19.5l-7.3 2.3c-9.3 3.1-13.4 14-8.3 22.3l4 6.6c-7.7 7.4-6.3 6.1-14 13.6z"/><path fill-rule="evenodd" d="m204.3 429.7q0 0-0.1 0l-19.4-2.6c-0.5 0-0.9-0.4-0.9-0.9l-0.7-7.7c-0.4-4.3-2.7-8.1-6.3-10.5-3.7-2.4-8.1-3-12.2-1.6l-7.3 2.5c-0.5 0.1-1-0.1-1.3-0.5l-10.1-16.7c-0.2-0.5-0.1-1 0.2-1.4l5.6-5.3c3.1-3 4.7-7.2 4.3-11.5-0.5-4.3-2.8-8.1-6.4-10.5l-6.5-4.1c-0.4-0.3-0.6-0.8-0.4-1.3l6.8-18.4c0.2-0.4 0.6-0.7 1.1-0.6l7.7 1c4.3 0.6 8.5-0.8 11.6-3.8 3.1-3 4.7-7.2 4.3-11.5l-0.8-7.7c-0.1-0.5 0.2-1 0.7-1.1l18.6-6.1c0.5-0.2 1 0 1.2 0.4l4 6.6c2.2 3.7 6 6.2 10.2 6.8 4.3 0.5 8.6-0.9 11.7-3.9l5.5-5.4c0.4-0.3 0.9-0.4 1.3-0.1l16.4 10.7c0.4 0.3 0.6 0.8 0.4 1.2l-2.7 7.3c-1.5 4-1.1 8.5 1.1 12.2 2.3 3.7 6 6.1 10.3 6.7l7.7 0.9c0.5 0.1 0.8 0.5 0.9 1l1.8 19.5c0.1 0.4-0.2 0.9-0.7 1.1l-7.3 2.3c-4.1 1.4-7.4 4.5-8.9 8.5-1.5 4.1-1 8.6 1.2 12.3l4 6.5c0.3 0.5 0.2 1-0.1 1.4l-14.1 13.5c-0.4 0.4-0.9 0.4-1.3 0.2l-6.5-4.3c-3.6-2.4-8-3-12.1-1.6-4.1 1.4-7.3 4.5-8.8 8.5l-2.7 7.3c-0.1 0.4-0.5 0.7-1 0.7zm-18.4-4.6l17.7 2.3 2.4-6.4c1.7-4.7 5.4-8.3 10.1-9.8 4.7-1.6 9.8-0.9 14 1.8l5.7 3.8 12.9-12.4-3.6-5.8c-2.6-4.3-3.1-9.4-1.3-14.1 1.7-4.7 5.4-8.2 10.1-9.8l6.5-2.1-1.6-17.8-6.8-0.8c-5-0.7-9.3-3.5-11.9-7.7-2.5-4.3-3-9.4-1.3-14.1l2.4-6.4-14.9-9.8-4.9 4.8c-3.6 3.5-8.5 5.1-13.4 4.5-5-0.7-9.3-3.5-11.8-7.8l-3.5-5.9-17 5.6 0.7 6.9c0.5 4.9-1.3 9.7-4.9 13.2-3.6 3.5-8.5 5.1-13.4 4.4l-6.8-0.9-6.2 16.7 5.7 3.8c4.2 2.7 6.9 7.1 7.4 12 0.4 5-1.4 9.8-5 13.3l-4.9 4.7 9.2 15.3 6.5-2.2c4.8-1.6 9.9-0.9 14 1.8 4.2 2.7 6.8 7.1 7.3 12.1z"/><path  d="m230.3 369.5c0 15.2-12.4 27.5-27.6 27.5-15.2 0-27.6-12.3-27.6-27.5 0-15.2 12.4-27.6 27.6-27.6 15.2 0 27.6 12.4 27.6 27.6z"/><path fill-rule="evenodd" d="m202.7 398.1c-15.8 0-28.6-12.8-28.6-28.6 0-15.8 12.8-28.6 28.6-28.6 15.8 0 28.6 12.8 28.6 28.6 0 15.8-12.8 28.6-28.6 28.6zm0-55.1c-14.6 0-26.5 11.9-26.5 26.5 0 14.6 11.9 26.5 26.5 26.5 14.6 0 26.5-11.9 26.5-26.5 0-14.6-11.9-26.5-26.5-26.5z"/><path class="a" d="m220.6 369.5c0 9.9-8 17.9-17.9 17.9-9.9 0-17.9-8-17.9-17.9 0-9.9 8-17.9 17.9-17.9 9.9 0 17.9 8 17.9 17.9z"/><path fill-rule="evenodd" d="m202.7 388.5c-10.5 0-19-8.5-19-19 0-10.5 8.5-19 19-19 10.5 0 19 8.5 19 19 0 10.5-8.5 19-19 19zm0-35.9c-9.3 0-16.9 7.6-16.9 16.9 0 9.3 7.6 16.9 16.9 16.9 9.3 0 16.9-7.6 16.9-16.9 0-9.3-7.6-16.9-16.9-16.9z"/><path class="a" d="m1016 259.6l-6.5-3.7c-4.4 1.3-6.8 2-11.1 3.3l-3.5 6.6c-8.1-2-7.1-1.7-15.2-3.7l-0.1-7.5c-3.3-3.1-5.1-4.8-8.4-7.9l-7.4 0.2c-2.4-8-2.1-6.9-4.4-15l6.4-3.8c1-4.4 1.6-6.8 2.7-11.2l-4-6.3c5.8-6.1 5-5.3 10.8-11.3l6.5 3.6c4.4-1.3 6.7-2 11.1-3.3l3.5-6.5c8.1 1.9 7.1 1.7 15.2 3.6l0.1 7.5c3.3 3.1 5.1 4.8 8.4 8l7.4-0.3c2.4 8 2.1 7 4.4 15l-6.4 3.8c-1.1 4.4-1.6 6.8-2.7 11.2l4 6.3c-5.8 6.1-5.1 5.3-10.8 11.4z"/><path fill-rule="evenodd" d="m994.9 266.8q-0.1 0-0.3 0l-15.2-3.7c-0.4-0.1-0.8-0.5-0.8-1l-0.1-7-7.7-7.4-7 0.3c-0.5 0-0.9-0.3-1-0.8l-4.5-15c-0.1-0.4 0.1-0.9 0.5-1.2l6-3.5 2.6-10.4-3.8-5.9c-0.2-0.5-0.2-1 0.2-1.3l10.7-11.4c0.4-0.3 0.9-0.4 1.3-0.2l6.1 3.5 10.3-3.1 3.2-6.1c0.3-0.5 0.8-0.7 1.2-0.6l15.2 3.7c0.5 0.1 0.9 0.5 0.9 1v7l7.8 7.4 7-0.3c0.4 0 0.9 0.3 1 0.8l4.4 15c0.2 0.5 0 1-0.4 1.2l-6.1 3.6-2.5 10.4 3.8 5.9c0.2 0.4 0.2 0.9-0.2 1.3l-10.8 11.3c-0.3 0.4-0.8 0.4-1.3 0.2l-6.1-3.4-10.2 3-3.3 6.2c-0.2 0.3-0.5 0.5-0.9 0.5zm-14.2-5.5l13.6 3.3 3.1-5.9c0.2-0.3 0.4-0.4 0.7-0.5l11.1-3.3c0.2-0.1 0.5 0 0.8 0.1l5.8 3.2 9.6-10.1-3.5-5.6c-0.2-0.2-0.2-0.5-0.1-0.8l2.7-11.3c0-0.2 0.2-0.5 0.5-0.6l5.7-3.4-4-13.4-6.6 0.2q-0.5 0-0.8-0.3l-8.4-7.9c-0.2-0.2-0.3-0.5-0.3-0.8l-0.1-6.6-13.6-3.3-3.1 5.8c-0.1 0.3-0.3 0.5-0.6 0.6l-11.1 3.2c-0.3 0.1-0.6 0.1-0.8-0.1l-5.8-3.2-9.6 10.1 3.5 5.6c0.1 0.3 0.2 0.6 0.1 0.8l-2.7 11.3c-0.1 0.3-0.2 0.5-0.5 0.7l-5.7 3.3 4 13.5 6.6-0.3c0.3 0 0.5 0.1 0.7 0.3l8.4 8c0.2 0.2 0.4 0.4 0.4 0.7z"/><path class="a" d="m1010.3 229.4c0 8.1-6.6 14.7-14.7 14.7-8.1 0-14.6-6.6-14.6-14.7 0-8.1 6.5-14.6 14.6-14.6 8.1 0 14.7 6.5 14.7 14.6z"/><path fill-rule="evenodd" d="m995.6 245.1c-8.6 0-15.7-7-15.7-15.7 0-8.6 7.1-15.7 15.7-15.7 8.7 0 15.7 7.1 15.7 15.7 0 8.7-7 15.7-15.7 15.7zm0-29.3c-7.5 0-13.5 6.1-13.5 13.6 0 7.5 6 13.6 13.5 13.6 7.5 0 13.6-6.1 13.6-13.6 0-7.5-6.1-13.6-13.6-13.6z"/><path  d="m921 267c3.5 0 6.4 2.8 6.4 6.4 0 3.5-2.9 6.4-6.4 6.4-3.6 0-6.5-2.9-6.5-6.4 0-3.6 2.9-6.4 6.5-6.4z"/><path fill-rule="evenodd" d="m921 280.9c-4.2 0-7.5-3.4-7.5-7.5 0-4.1 3.3-7.5 7.5-7.5 4.1 0 7.5 3.4 7.5 7.5 0 4.1-3.4 7.5-7.5 7.5zm0-12.9c-3 0-5.4 2.4-5.4 5.4 0 3 2.4 5.4 5.4 5.4 3 0 5.4-2.4 5.4-5.4 0-3-2.4-5.4-5.4-5.4z"/><path  d="m1376.1 599.5c3.6 0 6.5 2.9 6.5 6.4 0 3.6-2.9 6.5-6.5 6.5-3.5 0-6.4-2.9-6.4-6.5 0-3.5 2.9-6.4 6.4-6.4z"/><path fill-rule="evenodd" d="m1376.1 613.4c-4.1 0-7.5-3.4-7.5-7.5 0-4.1 3.4-7.5 7.5-7.5 4.2 0 7.5 3.4 7.5 7.5 0 4.1-3.3 7.5-7.5 7.5zm0-12.9c-3 0-5.4 2.4-5.4 5.4 0 3 2.4 5.4 5.4 5.4 3 0 5.4-2.4 5.4-5.4 0-3-2.4-5.4-5.4-5.4z"/><path  d="m103.3 515.8c4.3 0 7.9 3.5 7.9 7.9 0 4.3-3.6 7.8-7.9 7.8-4.3 0-7.8-3.5-7.8-7.8 0-4.4 3.5-7.9 7.8-7.9z"/><path fill-rule="evenodd" d="m103.3 532.6c-4.9 0-8.9-4-8.9-8.9 0-4.9 4-8.9 8.9-8.9 4.9 0 8.9 4 8.9 8.9 0 4.9-4 8.9-8.9 8.9zm0-15.7c-3.7 0-6.8 3-6.8 6.8 0 3.7 3.1 6.8 6.8 6.8 3.7 0 6.8-3.1 6.8-6.8 0-3.8-3.1-6.8-6.8-6.8z"/><path  d="m610.7 187.1c1.7 0 3.1 1.4 3.1 3.1 0 1.7-1.4 3.1-3.1 3.1-1.8 0-3.2-1.4-3.2-3.1 0-1.7 1.4-3.1 3.2-3.1z"/><path fill-rule="evenodd" d="m610.7 194.4c-2.3 0-4.2-1.9-4.2-4.2 0-2.3 1.9-4.2 4.2-4.2 2.3 0 4.2 1.9 4.2 4.2 0 2.3-1.9 4.2-4.2 4.2zm0-6.3c-1.2 0-2.1 1-2.1 2.1 0 1.1 0.9 2.1 2.1 2.1 1.1 0 2-1 2-2.1 0-1.1-0.9-2.1-2-2.1z"/><path  d="m491.8 381.7c1.8 0 3.2 1.4 3.2 3.1 0 1.8-1.4 3.2-3.2 3.2-1.7 0-3.1-1.4-3.1-3.2 0-1.7 1.4-3.1 3.1-3.1z"/><path fill-rule="evenodd" d="m491.8 389c-2.3 0-4.2-1.9-4.2-4.2 0-2.3 1.9-4.2 4.2-4.2 2.3 0 4.2 1.9 4.2 4.2 0 2.3-1.9 4.2-4.2 4.2zm0-6.2c-1.1 0-2 0.9-2 2 0 1.2 0.9 2.1 2 2.1 1.2 0 2.1-0.9 2.1-2.1 0-1.1-0.9-2-2.1-2z"/><path class="a" d="m618.1 287.2c0-4.9 3.9-8.8 8.7-8.8 4.9 0 8.8 3.9 8.8 8.8 0 4.8-3.9 8.7-8.8 8.7-4.8 0-8.7-3.9-8.7-8.7z"/><path fill-rule="evenodd" d="m626.8 297c-5.4 0-9.8-4.4-9.8-9.8 0-5.4 4.4-9.8 9.8-9.8 5.4 0 9.8 4.4 9.8 9.8 0 5.4-4.4 9.8-9.8 9.8zm0-17.5c-4.2 0-7.7 3.4-7.7 7.7 0 4.2 3.5 7.6 7.7 7.6 4.3 0 7.7-3.4 7.7-7.6 0-4.3-3.4-7.7-7.7-7.7z"/><path class="a" d="m1276.2 568.4c0-4.8 3.9-8.7 8.7-8.7 4.8 0 8.7 3.9 8.7 8.7 0 4.9-3.9 8.8-8.7 8.8-4.8 0-8.7-3.9-8.7-8.8z"/><path fill-rule="evenodd" d="m1284.9 578.2c-5.4 0-9.8-4.3-9.8-9.8 0-5.4 4.4-9.8 9.8-9.8 5.4 0 9.8 4.4 9.8 9.8 0 5.5-4.4 9.8-9.8 9.8zm0-17.4c-4.2 0-7.7 3.4-7.7 7.6 0 4.3 3.5 7.7 7.7 7.7 4.2 0 7.7-3.4 7.7-7.7 0-4.2-3.5-7.6-7.7-7.6z"/><path class="a" d="m142.6 605.1c0-3.1 2.5-5.6 5.6-5.6 3.1 0 5.7 2.5 5.7 5.6 0 3.1-2.6 5.6-5.7 5.6-3.1 0-5.6-2.5-5.6-5.6z"/><path fill-rule="evenodd" d="m148.2 611.8c-3.6 0-6.6-3-6.6-6.7 0-3.7 3-6.7 6.6-6.7 3.7 0 6.7 3 6.7 6.7 0 3.7-3 6.7-6.7 6.7zm0-11.3c-2.5 0-4.5 2.1-4.5 4.6 0 2.5 2 4.5 4.5 4.5 2.6 0 4.6-2 4.6-4.5 0-2.5-2-4.6-4.6-4.6z"/><path  d="m1344 484.9c-0.5 0-1-0.4-1-1-0.1-0.6 0.4-1.1 1-1.1 2.7-0.1 5.4-0.6 8-1.4 0.6-0.2 1.2 0.1 1.4 0.7 0.1 0.5-0.2 1.1-0.7 1.3-2.8 0.9-5.7 1.4-8.6 1.5q0 0-0.1 0zm-8.4-0.8q-0.1 0-0.2 0c-2.9-0.7-5.6-1.7-8.2-3.2-0.5-0.3-0.7-0.9-0.4-1.4 0.3-0.5 0.9-0.7 1.4-0.4 2.4 1.3 5 2.3 7.7 2.9 0.5 0.2 0.9 0.7 0.7 1.3-0.1 0.5-0.5 0.8-1 0.8zm24.4-4.4c-0.4 0-0.7-0.1-0.9-0.4-0.3-0.5-0.2-1.2 0.3-1.5 2.2-1.5 4.3-3.4 6.1-5.4 0.3-0.5 1-0.5 1.5-0.2 0.4 0.4 0.5 1.1 0.1 1.5-1.9 2.3-4.1 4.2-6.6 5.9q-0.2 0.1-0.5 0.1zm-39-3.7c-0.3 0-0.6-0.1-0.8-0.3-2.1-2.1-3.8-4.5-5.3-7-0.3-0.5-0.1-1.2 0.4-1.4 0.5-0.3 1.2-0.2 1.5 0.4 1.3 2.3 3 4.5 4.9 6.5 0.4 0.4 0.4 1 0 1.5-0.2 0.2-0.5 0.3-0.7 0.3zm49.8-9q-0.2 0-0.4-0.1c-0.5-0.3-0.8-0.9-0.5-1.4 1.1-2.5 1.9-5.1 2.3-7.8 0.1-0.6 0.7-1 1.2-0.9 0.6 0.1 1 0.6 0.9 1.2-0.4 2.9-1.3 5.7-2.5 8.4-0.2 0.4-0.6 0.6-1 0.6zm-58.1-5.6c-0.4 0-0.9-0.4-1-0.8-0.6-2.5-0.9-5-0.9-7.6 0-2.9 0.4-5.8 1.2-8.6 0.2-0.6 0.8-0.9 1.3-0.8 0.6 0.2 0.9 0.8 0.8 1.3-0.8 2.7-1.2 5.4-1.2 8.1 0 2.4 0.3 4.8 0.9 7.1 0.1 0.5-0.2 1.1-0.8 1.2q-0.1 0.1-0.3 0.1zm60.7-11c-0.5 0-1-0.4-1-0.9-0.3-2.7-1-5.4-2.1-7.9-0.2-0.6 0-1.2 0.6-1.4 0.5-0.2 1.1 0 1.4 0.6 1.1 2.7 1.8 5.5 2.2 8.4 0.1 0.6-0.4 1.2-0.9 1.2q-0.1 0-0.2 0zm-57-12.4q-0.3 0-0.5-0.2c-0.5-0.3-0.7-1-0.4-1.5 1.6-2.5 3.4-4.7 5.6-6.7 0.4-0.4 1.1-0.4 1.5 0 0.4 0.5 0.3 1.1-0.1 1.5-2 1.9-3.7 4-5.2 6.4-0.2 0.3-0.5 0.5-0.9 0.5zm50.6-3c-0.3 0-0.6-0.2-0.8-0.4-1.7-2.2-3.7-4.1-5.9-5.7-0.5-0.4-0.6-1-0.3-1.5 0.4-0.5 1-0.6 1.5-0.2 2.4 1.7 4.5 3.7 6.3 6 0.4 0.5 0.3 1.2-0.1 1.5q-0.3 0.3-0.7 0.3zm-38.3-8.4c-0.4 0-0.7-0.2-0.9-0.6-0.3-0.5-0.1-1.2 0.5-1.4 2.6-1.4 5.3-2.3 8.2-2.9 0.6-0.1 1.2 0.3 1.3 0.8 0.1 0.6-0.3 1.2-0.9 1.3-2.7 0.5-5.2 1.4-7.7 2.7q-0.2 0.1-0.5 0.1zm24.7-1.5q-0.2 0-0.3-0.1c-2.6-0.9-5.3-1.5-8-1.7-0.6 0-1-0.6-1-1.1 0.1-0.6 0.6-1.1 1.1-1 3 0.2 5.9 0.8 8.6 1.8 0.5 0.3 0.8 0.9 0.6 1.4-0.1 0.4-0.5 0.7-1 0.7z"/><path  d="m647.2 656.7q-0.1 0-0.1 0c-2.5 0-5-0.6-7.2-1.8-0.6-0.2-0.8-0.9-0.5-1.4 0.3-0.5 0.9-0.7 1.4-0.4 2 1 4.1 1.5 6.4 1.5q0.6 0 1.3-0.1c0.5 0 1.1 0.4 1.1 1 0.1 0.6-0.3 1.1-0.9 1.1q-0.8 0.1-1.5 0.1zm9.1-3.2c-0.3 0-0.6-0.1-0.8-0.4-0.4-0.5-0.3-1.1 0.2-1.5 2-1.7 3.6-3.9 4.4-6.4 0.2-0.5 0.8-0.8 1.3-0.6 0.6 0.1 0.9 0.7 0.7 1.3-0.9 2.9-2.7 5.4-5.1 7.4q-0.3 0.2-0.7 0.2zm-22-4.3c-0.3 0-0.7-0.2-0.9-0.5-1.3-2.4-2-5-2-7.8 0-3 0.8-6 2.5-8.6 0.3-0.5 1-0.6 1.5-0.3 0.5 0.3 0.6 1 0.3 1.5-1.5 2.2-2.2 4.8-2.2 7.4 0 2.4 0.6 4.7 1.8 6.8 0.2 0.5 0.1 1.1-0.4 1.4q-0.3 0.1-0.6 0.1zm27.1-10.9c-0.5 0-0.9-0.4-1.1-0.8-0.6-2.6-2-4.9-4-6.7-0.4-0.4-0.5-1-0.1-1.5 0.4-0.4 1.1-0.4 1.5 0 2.3 2 3.9 4.7 4.7 7.6 0.1 0.6-0.2 1.2-0.8 1.3q-0.1 0.1-0.2 0.1zm-20.2-9.8c-0.4 0-0.8-0.2-1-0.6-0.2-0.5 0-1.1 0.5-1.4q3.1-1.3 6.4-1.3 1.3 0 2.5 0.2c0.6 0.1 1 0.6 0.9 1.2-0.1 0.6-0.6 1-1.2 0.9q-1.1-0.2-2.2-0.2-2.9 0-5.5 1.2-0.2 0-0.4 0z"/></svg>